<svg width="24" height="24" viewBox="0 0 24 24" fill="none" xmlns="http://www.w3.org/2000/svg">
<path d="M13.2899 9.29006L9.28994 13.2901C9.19621 13.383 9.12182 13.4936 9.07105 13.6155C9.02028 13.7373 8.99414 13.8681 8.99414 14.0001C8.99414 14.1321 9.02028 14.2628 9.07105 14.3846C9.12182 14.5065 9.19621 14.6171 9.28994 14.7101C9.3829 14.8038 9.4935 14.8782 9.61536 14.929C9.73722 14.9797 9.86793 15.0059 9.99994 15.0059C10.132 15.0059 10.2627 14.9797 10.3845 14.929C10.5064 14.8782 10.617 14.8038 10.7099 14.7101L14.7099 10.7101C14.8982 10.5218 15.004 10.2664 15.004 10.0001C15.004 9.73376 14.8982 9.47837 14.7099 9.29006C14.5216 9.10176 14.2662 8.99597 13.9999 8.99597C13.7336 8.99597 13.4782 9.10176 13.2899 9.29006V9.29006Z" fill="#272A36"/>
<path d="M12.2795 17.4L10.9995 18.67C10.281 19.4105 9.31498 19.8605 8.28583 19.9343C7.25668 20.008 6.23638 19.7004 5.41954 19.07C4.98781 18.7143 4.63551 18.2719 4.38538 17.7715C4.13526 17.2711 3.99287 16.7239 3.96743 16.165C3.94198 15.6062 4.03404 15.0482 4.23766 14.5271C4.44128 14.0061 4.75193 13.5336 5.14954 13.14L6.56954 11.71C6.66327 11.6171 6.73767 11.5065 6.78843 11.3846C6.8392 11.2628 6.86534 11.132 6.86534 11C6.86534 10.868 6.8392 10.7373 6.78843 10.6155C6.73767 10.4936 6.66327 10.383 6.56954 10.29C6.47658 10.1963 6.36598 10.1219 6.24412 10.0711C6.12226 10.0204 5.99155 9.99424 5.85954 9.99424C5.72753 9.99424 5.59683 10.0204 5.47497 10.0711C5.35311 10.1219 5.24251 10.1963 5.14954 10.29L3.87954 11.57C2.8097 12.606 2.15213 13.9951 2.02891 15.4792C1.90569 16.9633 2.3252 18.4418 3.20954 19.64C3.73442 20.321 4.39818 20.8824 5.15673 21.2871C5.91528 21.6918 6.75125 21.9304 7.60912 21.9871C8.46699 22.0439 9.32711 21.9175 10.1324 21.6162C10.9376 21.315 11.6695 20.8459 12.2795 20.24L13.6995 18.82C13.8878 18.6317 13.9936 18.3763 13.9936 18.11C13.9936 17.8437 13.8878 17.5883 13.6995 17.4C13.5112 17.2117 13.2558 17.1059 12.9895 17.1059C12.7232 17.1059 12.4678 17.2117 12.2795 17.4V17.4ZM19.6595 3.22004C18.453 2.3265 16.9625 1.90272 15.4664 2.02786C13.9703 2.153 12.5708 2.81849 11.5295 3.90004L10.4495 5.00004C10.3261 5.08977 10.2229 5.20443 10.1466 5.33659C10.0702 5.46875 10.0225 5.61546 10.0065 5.76723C9.99047 5.919 10.0065 6.07244 10.0535 6.21763C10.1006 6.36281 10.1776 6.4965 10.2795 6.61004C10.3725 6.70377 10.4831 6.77816 10.605 6.82893C10.7268 6.8797 10.8575 6.90584 10.9895 6.90584C11.1216 6.90584 11.2523 6.8797 11.3741 6.82893C11.496 6.77816 11.6066 6.70377 11.6995 6.61004L12.9995 5.30004C13.7141 4.55635 14.679 4.10387 15.7077 4.03C16.7364 3.95612 17.756 4.26609 18.5695 4.90004C19.0045 5.25584 19.3596 5.69929 19.6117 6.2015C19.8638 6.70371 20.0073 7.25341 20.0328 7.81477C20.0582 8.37613 19.9651 8.93655 19.7595 9.45953C19.554 9.98251 19.2405 10.4563 18.8395 10.85L17.4195 12.28C17.3258 12.373 17.2514 12.4836 17.2007 12.6055C17.1499 12.7273 17.1237 12.858 17.1237 12.99C17.1237 13.122 17.1499 13.2528 17.2007 13.3746C17.2514 13.4965 17.3258 13.6071 17.4195 13.7C17.5125 13.7938 17.6231 13.8682 17.745 13.9189C17.8668 13.9697 17.9975 13.9958 18.1295 13.9958C18.2616 13.9958 18.3923 13.9697 18.5141 13.9189C18.636 13.8682 18.7466 13.7938 18.8395 13.7L20.2595 12.28C20.8637 11.6701 21.3314 10.9388 21.6316 10.1346C21.9318 9.33031 22.0577 8.47144 22.001 7.61484C21.9443 6.75824 21.7062 5.92348 21.3025 5.16583C20.8989 4.40818 20.3388 3.74494 19.6595 3.22004V3.22004Z" fill="#272A36"/>
</svg>
