<svg width="24" height="24" viewBox="0 0 24 24" fill="none" xmlns="http://www.w3.org/2000/svg">
<path d="M18 3H6C5.20435 3 4.44129 3.31607 3.87868 3.87868C3.31607 4.44129 3 5.20435 3 6V18C3 18.7956 3.31607 19.5587 3.87868 20.1213C4.44129 20.6839 5.20435 21 6 21H18C18.7956 21 19.5587 20.6839 20.1213 20.1213C20.6839 19.5587 21 18.7956 21 18V6C21 5.20435 20.6839 4.44129 20.1213 3.87868C19.5587 3.31607 18.7956 3 18 3ZM19 18C19 18.2652 18.8946 18.5196 18.7071 18.7071C18.5196 18.8946 18.2652 19 18 19H6C5.73478 19 5.48043 18.8946 5.29289 18.7071C5.10536 18.5196 5 18.2652 5 18V6C5 5.73478 5.10536 5.48043 5.29289 5.29289C5.48043 5.10536 5.73478 5 6 5H18C18.2652 5 18.5196 5.10536 18.7071 5.29289C18.8946 5.48043 19 5.73478 19 6V18Z" fill="#272A36"/>
<path d="M14.7002 8.39005L10.9202 13.3901L9.29019 11.2801C9.12708 11.0705 8.88742 10.9344 8.62393 10.9016C8.36044 10.8688 8.09471 10.9419 7.88519 11.1051C7.67567 11.2682 7.53952 11.5078 7.5067 11.7713C7.47389 12.0348 7.54708 12.3005 7.71019 12.5101L10.1402 15.6201C10.2344 15.7392 10.3544 15.8354 10.4913 15.9012C10.6282 15.9671 10.7783 16.0009 10.9302 16.0001C11.0829 15.9997 11.2335 15.9643 11.3705 15.8967C11.5074 15.8291 11.627 15.7311 11.7202 15.6101L16.2902 9.61005C16.452 9.39788 16.5228 9.13013 16.4872 8.8657C16.4516 8.60128 16.3124 8.36184 16.1002 8.20005C15.888 8.03827 15.6203 7.9674 15.3558 8.00303C15.0914 8.03867 14.852 8.17788 14.6902 8.39005H14.7002Z" fill="#272A36"/>
</svg>
