<svg width="24" height="24" viewBox="0 0 24 24" fill="none" xmlns="http://www.w3.org/2000/svg">
<path d="M9.77997 11.16L8.35997 12.58C7.53693 11.7571 6.92312 10.7489 6.56997 9.63995L8.50997 9.14995C8.82997 10.04 9.27997 10.65 9.77997 11.16ZM10.15 5.14995L7.34997 2.34995C7.14997 2.14995 6.83997 2.14995 6.63997 2.34995L3.84997 5.14995C3.78087 5.22045 3.73418 5.30982 3.71579 5.40681C3.69739 5.5038 3.70812 5.60406 3.74662 5.69496C3.78512 5.78586 3.84967 5.86333 3.93212 5.9176C4.01458 5.97188 4.11125 6.00053 4.20997 5.99995H6.01997C6.03997 6.80995 6.09997 7.53995 6.20997 8.16995L8.14997 7.67995C8.07997 7.19995 8.02997 6.62995 8.01997 5.99995H9.79997C9.89783 5.99858 9.99314 5.96851 10.0741 5.91348C10.155 5.85845 10.218 5.78088 10.2553 5.69038C10.2925 5.59988 10.3024 5.50043 10.2837 5.40436C10.265 5.3083 10.2185 5.21984 10.15 5.14995V5.14995ZM20.15 5.14995L17.36 2.35995C17.16 2.15995 16.85 2.15995 16.65 2.35995L13.86 5.14995C13.54 5.45995 13.76 5.99995 14.21 5.99995H15.99C15.89 9.67995 14.71 10.75 13.45 11.88C12.95 12.32 12.44 12.8 12 13.43C11.66 12.94 11.27 12.55 10.87 12.19L9.45997 13.6C10.39 14.45 11 15.14 11 17V21C11 21.55 11.45 22 12 22C12.55 22 13 21.55 13 21V17C13 14.98 13.71 14.34 14.79 13.37C16.17 12.13 17.87 10.59 17.99 5.99995H19.79C19.8887 6.00053 19.9854 5.97188 20.0678 5.9176C20.1503 5.86333 20.2148 5.78586 20.2533 5.69496C20.2918 5.60406 20.3025 5.5038 20.2842 5.40681C20.2658 5.30982 20.2191 5.22045 20.15 5.14995V5.14995Z" fill="#272A36"/>
</svg>
