<svg width="24" height="24" viewBox="0 0 24 24" fill="none" xmlns="http://www.w3.org/2000/svg">
<path d="M13.2901 9.29L9.29006 13.29C9.19633 13.383 9.12194 13.4936 9.07117 13.6154C9.0204 13.7373 8.99426 13.868 8.99426 14C8.99426 14.132 9.0204 14.2627 9.07117 14.3846C9.12194 14.5064 9.19633 14.617 9.29006 14.71C9.38302 14.8037 9.49362 14.8781 9.61548 14.9289C9.73734 14.9797 9.86805 15.0058 10.0001 15.0058C10.1321 15.0058 10.2628 14.9797 10.3846 14.9289C10.5065 14.8781 10.6171 14.8037 10.7101 14.71L14.7101 10.71C14.8984 10.5217 15.0042 10.2663 15.0042 10C15.0042 9.7337 14.8984 9.47831 14.7101 9.29C14.5218 9.1017 14.2664 8.99591 14.0001 8.99591C13.7338 8.99591 13.4784 9.1017 13.2901 9.29V9.29Z" fill="white"/>
<path d="M12.28 17.4L11 18.67C10.2815 19.4104 9.31547 19.8605 8.28632 19.9342C7.25717 20.008 6.23687 19.7004 5.42003 19.07C4.9883 18.7142 4.636 18.2719 4.38587 17.7715C4.13574 17.2711 3.99336 16.7238 3.96792 16.165C3.94247 15.6061 4.03453 15.0482 4.23815 14.5271C4.44177 14.0061 4.75242 13.5335 5.15003 13.14L6.57003 11.71C6.66376 11.617 6.73815 11.5064 6.78892 11.3846C6.83969 11.2627 6.86583 11.132 6.86583 11C6.86583 10.868 6.83969 10.7373 6.78892 10.6154C6.73815 10.4936 6.66376 10.383 6.57003 10.29C6.47707 10.1963 6.36647 10.1219 6.24461 10.0711C6.12275 10.0203 5.99204 9.99421 5.86003 9.99421C5.72802 9.99421 5.59731 10.0203 5.47545 10.0711C5.3536 10.1219 5.24299 10.1963 5.15003 10.29L3.88003 11.57C2.81019 12.606 2.15262 13.995 2.0294 15.4792C1.90618 16.9633 2.32568 18.4418 3.21003 19.64C3.73491 20.3209 4.39867 20.8824 5.15722 21.2871C5.91577 21.6917 6.75174 21.9304 7.60961 21.9871C8.46748 22.0439 9.3276 21.9174 10.1328 21.6162C10.9381 21.315 11.67 20.8459 12.28 20.24L13.7 18.82C13.8883 18.6317 13.9941 18.3763 13.9941 18.11C13.9941 17.8437 13.8883 17.5883 13.7 17.4C13.5117 17.2117 13.2563 17.1059 12.99 17.1059C12.7237 17.1059 12.4683 17.2117 12.28 17.4V17.4ZM19.66 3.22001C18.4535 2.32647 16.963 1.90269 15.4669 2.02783C13.9707 2.15297 12.5713 2.81846 11.53 3.90001L10.45 5.00001C10.3266 5.08974 10.2234 5.2044 10.147 5.33656C10.0707 5.46872 10.023 5.61543 10.007 5.7672C9.99096 5.91897 10.007 6.07241 10.054 6.2176C10.1011 6.36278 10.1781 6.49647 10.28 6.61001C10.373 6.70374 10.4836 6.77813 10.6055 6.8289C10.7273 6.87967 10.858 6.90581 10.99 6.90581C11.122 6.90581 11.2527 6.87967 11.3746 6.8289C11.4965 6.77813 11.6071 6.70374 11.7 6.61001L13 5.30001C13.7146 4.55632 14.6795 4.10384 15.7082 4.02997C16.7369 3.95609 17.7565 4.26606 18.57 4.90001C19.005 5.25581 19.3601 5.69926 19.6122 6.20147C19.8643 6.70368 20.0078 7.25337 20.0332 7.81473C20.0587 8.3761 19.9656 8.93652 19.76 9.4595C19.5544 9.98248 19.241 10.4563 18.84 10.85L17.42 12.28C17.3263 12.373 17.2519 12.4836 17.2011 12.6054C17.1504 12.7273 17.1242 12.858 17.1242 12.99C17.1242 13.122 17.1504 13.2527 17.2011 13.3746C17.2519 13.4964 17.3263 13.607 17.42 13.7C17.513 13.7937 17.6236 13.8681 17.7455 13.9189C17.8673 13.9697 17.998 13.9958 18.13 13.9958C18.262 13.9958 18.3927 13.9697 18.5146 13.9189C18.6365 13.8681 18.7471 13.7937 18.84 13.7L20.26 12.28C20.8642 11.6701 21.3319 10.9388 21.6321 10.1345C21.9323 9.33028 22.0582 8.47141 22.0015 7.61481C21.9448 6.75821 21.7067 5.92345 21.303 5.1658C20.8994 4.40815 20.3393 3.74491 19.66 3.22001V3.22001Z" fill="white"/>
</svg>
