<svg width="24" height="24" viewBox="0 0 24 24" fill="none" xmlns="http://www.w3.org/2000/svg">
<path d="M13.3919 10.436L14.8109 9.01803C14.2275 8.49672 13.5041 8.15792 12.7301 8.04357C11.9562 7.92922 11.1657 8.04435 10.4565 8.37469C9.74733 8.70504 9.15058 9.2361 8.74015 9.90215C8.32972 10.5682 8.12361 11.34 8.14735 12.122C8.17109 12.904 8.42362 13.6618 8.8737 14.3018C9.32378 14.9417 9.95164 15.4356 10.6796 15.7223C11.4075 16.009 12.2035 16.076 12.9691 15.9149C13.7347 15.7538 14.4362 15.3718 14.9869 14.816L13.6739 13.503H13.4639C13.178 13.754 12.8264 13.9183 12.4504 13.9765C12.0744 14.0347 11.6896 13.9845 11.3412 13.8317C10.9928 13.6789 10.6951 13.4299 10.4832 13.1139C10.2713 12.7979 10.154 12.428 10.1449 12.0477C10.1359 11.6673 10.2355 11.2923 10.4321 10.9665C10.6287 10.6408 10.9142 10.3779 11.255 10.2087C11.5957 10.0395 11.9777 9.97104 12.356 10.0113C12.7344 10.0516 13.0934 10.1989 13.3909 10.436H13.3919Z" fill="#272A36"/>
<path fill-rule="evenodd" clip-rule="evenodd" d="M12 3C13.1819 3 14.3522 3.23279 15.4442 3.68508C16.5361 4.13738 17.5282 4.80031 18.364 5.63604C19.1997 6.47177 19.8626 7.46392 20.3149 8.55585C20.7672 9.64778 21 10.8181 21 12C21 13.1819 20.7672 14.3522 20.3149 15.4442C19.8626 16.5361 19.1997 17.5282 18.364 18.364C17.5282 19.1997 16.5361 19.8626 15.4442 20.3149C14.3522 20.7672 13.1819 21 12 21C9.61305 21 7.32387 20.0518 5.63604 18.364C3.94821 16.6761 3 14.3869 3 12C3 9.61305 3.94821 7.32387 5.63604 5.63604C7.32387 3.94821 9.61305 3 12 3V3ZM12 5C12.9193 5 13.8295 5.18106 14.6788 5.53284C15.5281 5.88463 16.2997 6.40024 16.9497 7.05025C17.5998 7.70026 18.1154 8.47194 18.4672 9.32122C18.8189 10.1705 19 11.0807 19 12C19 12.9193 18.8189 13.8295 18.4672 14.6788C18.1154 15.5281 17.5998 16.2997 16.9497 16.9497C16.2997 17.5998 15.5281 18.1154 14.6788 18.4672C13.8295 18.8189 12.9193 19 12 19C10.1435 19 8.36301 18.2625 7.05025 16.9497C5.7375 15.637 5 13.8565 5 12C5 10.1435 5.7375 8.36301 7.05025 7.05025C8.36301 5.7375 10.1435 5 12 5V5Z" fill="#272A36"/>
</svg>
