<svg width="60" height="16" viewBox="0 0 60 16" fill="none" xmlns="http://www.w3.org/2000/svg">
<path d="M6.26 15.24C5.15333 15.24 4.08 15.0933 3.04 14.8C2.01333 14.4933 1.18667 14.1 0.56 13.62L1.66 11.18C2.26 11.62 2.97333 11.9733 3.8 12.24C4.62667 12.5067 5.45333 12.64 6.28 12.64C7.2 12.64 7.88 12.5067 8.32 12.24C8.76 11.96 8.98 11.5933 8.98 11.14C8.98 10.8067 8.84667 10.5333 8.58 10.32C8.32667 10.0933 7.99333 9.91333 7.58 9.78C7.18 9.64667 6.63333 9.5 5.94 9.34C4.87333 9.08667 4 8.83333 3.32 8.58C2.64 8.32667 2.05333 7.92 1.56 7.36C1.08 6.8 0.84 6.05333 0.84 5.12C0.84 4.30667 1.06 3.57333 1.5 2.92C1.94 2.25333 2.6 1.72667 3.48 1.34C4.37333 0.953333 5.46 0.76 6.74 0.76C7.63333 0.76 8.50667 0.866666 9.36 1.08C10.2133 1.29333 10.96 1.6 11.6 2L10.6 4.46C9.30667 3.72667 8.01333 3.36 6.72 3.36C5.81333 3.36 5.14 3.50667 4.7 3.8C4.27333 4.09333 4.06 4.48 4.06 4.96C4.06 5.44 4.30667 5.8 4.8 6.04C5.30667 6.26667 6.07333 6.49333 7.1 6.72C8.16667 6.97333 9.04 7.22667 9.72 7.48C10.4 7.73333 10.98 8.13333 11.46 8.68C11.9533 9.22667 12.2 9.96667 12.2 10.9C12.2 11.7 11.9733 12.4333 11.52 13.1C11.08 13.7533 10.4133 14.2733 9.52 14.66C8.62667 15.0467 7.54 15.24 6.26 15.24ZM20.7339 4.08C22.0672 4.08 23.1406 4.48 23.9539 5.28C24.7806 6.08 25.1939 7.26667 25.1939 8.84V15H22.0739V9.32C22.0739 8.46667 21.8872 7.83333 21.5139 7.42C21.1406 6.99333 20.6006 6.78 19.8939 6.78C19.1072 6.78 18.4806 7.02667 18.0139 7.52C17.5472 8 17.3139 8.72 17.3139 9.68V15H14.1939V0.159999H17.3139V5.36C17.7272 4.94667 18.2272 4.63333 18.8139 4.42C19.4006 4.19333 20.0406 4.08 20.7339 4.08ZM32.362 4.08C34.0287 4.08 35.3087 4.48 36.202 5.28C37.0954 6.06667 37.542 7.26 37.542 8.86V15H34.622V13.66C34.0354 14.66 32.942 15.16 31.342 15.16C30.5154 15.16 29.7954 15.02 29.182 14.74C28.582 14.46 28.122 14.0733 27.802 13.58C27.482 13.0867 27.322 12.5267 27.322 11.9C27.322 10.9 27.6954 10.1133 28.442 9.54C29.202 8.96667 30.3687 8.68 31.942 8.68H34.422C34.422 8 34.2154 7.48 33.802 7.12C33.3887 6.74667 32.7687 6.56 31.942 6.56C31.3687 6.56 30.802 6.65333 30.242 6.84C29.6954 7.01333 29.2287 7.25333 28.842 7.56L27.722 5.38C28.3087 4.96667 29.0087 4.64667 29.822 4.42C30.6487 4.19333 31.4954 4.08 32.362 4.08ZM32.122 13.06C32.6554 13.06 33.1287 12.94 33.542 12.7C33.9554 12.4467 34.2487 12.08 34.422 11.6V10.5H32.282C31.002 10.5 30.362 10.92 30.362 11.76C30.362 12.16 30.5154 12.48 30.822 12.72C31.142 12.9467 31.5754 13.06 32.122 13.06ZM43.3458 5.66C43.7191 5.14 44.2191 4.74667 44.8458 4.48C45.4858 4.21333 46.2191 4.08 47.0458 4.08V6.96C46.6991 6.93333 46.4658 6.92 46.3458 6.92C45.4524 6.92 44.7524 7.17333 44.2458 7.68C43.7391 8.17333 43.4858 8.92 43.4858 9.92V15H40.3658V4.24H43.3458V5.66ZM59.3433 9.66C59.3433 9.7 59.3233 9.98 59.2833 10.5H51.1433C51.2899 11.1667 51.6366 11.6933 52.1833 12.08C52.7299 12.4667 53.4099 12.66 54.2233 12.66C54.7833 12.66 55.2766 12.58 55.7033 12.42C56.1433 12.2467 56.5499 11.98 56.9233 11.62L58.5833 13.42C57.5699 14.58 56.0899 15.16 54.1433 15.16C52.9299 15.16 51.8566 14.9267 50.9233 14.46C49.9899 13.98 49.2699 13.32 48.7633 12.48C48.2566 11.64 48.0033 10.6867 48.0033 9.62C48.0033 8.56667 48.2499 7.62 48.7433 6.78C49.2499 5.92667 49.9366 5.26667 50.8033 4.8C51.6833 4.32 52.6633 4.08 53.7433 4.08C54.7966 4.08 55.7499 4.30667 56.6033 4.76C57.4566 5.21333 58.1233 5.86667 58.6033 6.72C59.0966 7.56 59.3433 8.54 59.3433 9.66ZM53.7633 6.44C53.0566 6.44 52.4633 6.64 51.9833 7.04C51.5033 7.44 51.2099 7.98667 51.1033 8.68H56.4033C56.2966 8 56.0033 7.46 55.5233 7.06C55.0433 6.64667 54.4566 6.44 53.7633 6.44Z" fill="#272A36"/>
</svg>
