<svg width="24" height="24" viewBox="0 0 24 24" fill="none" xmlns="http://www.w3.org/2000/svg">
<path d="M8 12C8 12.2652 8.10536 12.5196 8.29289 12.7071C8.48043 12.8946 8.73478 13 9 13H15C15.2652 13 15.5196 12.8946 15.7071 12.7071C15.8946 12.5196 16 12.2652 16 12C16 11.7348 15.8946 11.4804 15.7071 11.2929C15.5196 11.1054 15.2652 11 15 11H9C8.73478 11 8.48043 11.1054 8.29289 11.2929C8.10536 11.4804 8 11.7348 8 12Z" fill="#272A36"/>
<path d="M9.00028 16H7.21028C6.18264 16.0274 5.18171 15.6706 4.40315 14.9993C3.62459 14.328 3.12437 13.3905 3.00028 12.37C2.94867 11.8144 3.01384 11.2542 3.19162 10.7254C3.3694 10.1965 3.65584 9.71073 4.03255 9.29917C4.40926 8.88762 4.8679 8.55942 5.379 8.33568C5.8901 8.11193 6.44236 7.99758 7.00028 7.99997H9.00028C9.2655 7.99997 9.51985 7.89461 9.70739 7.70707C9.89493 7.51954 10.0003 7.26518 10.0003 6.99997C10.0003 6.73475 9.89493 6.4804 9.70739 6.29286C9.51985 6.10533 9.2655 5.99997 9.00028 5.99997H7.21028C5.728 5.98016 4.28845 6.49642 3.15659 7.45373C2.02472 8.41103 1.27673 9.74495 1.05028 11.21C0.937729 12.0574 1.00755 12.919 1.25507 13.7373C1.50258 14.5555 1.92208 15.3114 2.48547 15.9543C3.04886 16.5972 3.74312 17.1123 4.52176 17.4651C5.3004 17.8179 6.14544 18.0003 7.00028 18H9.00028C9.2655 18 9.51985 17.8946 9.70739 17.7071C9.89493 17.5195 10.0003 17.2652 10.0003 17C10.0003 16.7348 9.89493 16.4804 9.70739 16.2929C9.51985 16.1053 9.2655 16 9.00028 16ZM23.0003 11.24C22.7767 9.75649 22.0193 8.4056 20.8705 7.44083C19.7216 6.47606 18.2601 5.96372 16.7603 5.99997H15.2503C14.4403 5.99997 14.0003 6.44997 14.0003 6.99997C14.0003 7.26518 14.1056 7.51954 14.2932 7.70707C14.4807 7.89461 14.7351 7.99997 15.0003 7.99997H16.7903C17.8179 7.97254 18.8189 8.32935 19.5974 9.00065C20.376 9.67195 20.8762 10.6095 21.0003 11.63C21.0519 12.1855 20.9867 12.7457 20.8089 13.2745C20.6312 13.8034 20.3447 14.2892 19.968 14.7008C19.5913 15.1123 19.1327 15.4405 18.6216 15.6643C18.1105 15.888 17.5582 16.0024 17.0003 16H15.0003C14.7351 16 14.4807 16.1053 14.2932 16.2929C14.1056 16.4804 14.0003 16.7348 14.0003 17C14.0003 17.2652 14.1056 17.5195 14.2932 17.7071C14.4807 17.8946 14.7351 18 15.0003 18H17.0003C17.8564 18.0069 18.7042 17.8305 19.4865 17.4826C20.2688 17.1347 20.9677 16.6234 21.536 15.983C22.1044 15.3427 22.5291 14.5881 22.7817 13.77C23.0342 12.9519 23.1088 12.0893 23.0003 11.24V11.24Z" fill="#272A36"/>
</svg>
