<svg width="24" height="24" viewBox="0 0 24 24" fill="none" xmlns="http://www.w3.org/2000/svg">
<path d="M9.28987 21C8.46369 20.9961 7.64656 20.8278 6.88602 20.505C6.12548 20.1823 5.43674 19.7115 4.85987 19.12C4.28734 18.5774 3.82743 17.9272 3.50646 17.2066C3.18548 16.486 3.00975 15.7092 2.98932 14.9207C2.96888 14.1321 3.10415 13.3472 3.38737 12.611C3.67059 11.8748 4.09621 11.2016 4.63987 10.63L11.9999 3.20003C12.3929 2.80771 12.8614 2.49911 13.377 2.29286C13.8926 2.08662 14.4447 1.987 14.9999 2.00003C15.5946 2.00206 16.1829 2.12247 16.7306 2.35425C17.2783 2.58603 17.7744 2.92454 18.1899 3.35003C19.0169 4.14627 19.4965 5.23655 19.5245 6.38421C19.5526 7.53187 19.1269 8.6443 18.3399 9.48003L10.9399 16.91C10.7029 17.1487 10.4208 17.3378 10.1101 17.4666C9.79939 17.5953 9.4662 17.6611 9.12987 17.66C8.76655 17.6605 8.40681 17.5882 8.07189 17.4474C7.73698 17.3065 7.43367 17.1 7.17987 16.84C6.6726 16.3489 6.37965 15.6774 6.36467 14.9715C6.34969 14.2656 6.61389 13.5823 7.09987 13.07L13.9299 6.21003C14.1243 6.08094 14.3577 6.02388 14.5897 6.04875C14.8217 6.07362 15.0377 6.17884 15.2003 6.34619C15.3629 6.51355 15.4619 6.7325 15.4801 6.96514C15.4983 7.19778 15.4345 7.42945 15.2999 7.62003L8.46987 14.48C8.35598 14.6172 8.30055 14.7937 8.31551 14.9714C8.33047 15.1491 8.41464 15.3138 8.54987 15.43C8.69059 15.5717 8.88028 15.654 9.07987 15.66C9.15381 15.6611 9.22722 15.6475 9.29588 15.62C9.36453 15.5926 9.42707 15.5518 9.47987 15.5L16.8699 8.07003C17.2847 7.60921 17.5015 7.00367 17.4734 6.38428C17.4454 5.7649 17.1747 5.18144 16.7199 4.76003C16.2975 4.32147 15.723 4.06149 15.1148 4.03359C14.5065 4.00569 13.9107 4.21199 13.4499 4.61003L6.05987 12C5.70052 12.386 5.42103 12.8392 5.2375 13.3336C5.05397 13.828 4.97001 14.3538 4.99046 14.8808C5.0109 15.4078 5.13535 15.9255 5.35664 16.4042C5.57793 16.8829 5.89169 17.3131 6.27987 17.67C6.66915 18.0736 7.13494 18.3955 7.65004 18.617C8.16513 18.8385 8.7192 18.9551 9.27987 18.96C9.76329 18.964 10.2427 18.8723 10.6906 18.6904C11.1385 18.5085 11.5461 18.2399 11.8899 17.9L19.2799 10.47C19.3725 10.3768 19.4825 10.3027 19.6037 10.252C19.7249 10.2013 19.8549 10.1749 19.9863 10.1745C20.1177 10.174 20.2479 10.1994 20.3695 10.2493C20.4911 10.2991 20.6016 10.3725 20.6949 10.465C20.7881 10.5576 20.8622 10.6677 20.9129 10.7889C20.9636 10.9101 20.99 11.0401 20.9904 11.1715C20.9909 11.3029 20.9655 11.4331 20.9156 11.5547C20.8658 11.6762 20.7925 11.7868 20.6999 11.88L13.3099 19.31C12.7852 19.844 12.1596 20.2684 11.4695 20.5585C10.7794 20.8486 10.0385 20.9987 9.28987 21V21Z" fill="#272A36"/>
</svg>
