<svg width="24" height="24" viewBox="0 0 24 24" fill="none" xmlns="http://www.w3.org/2000/svg">
<path d="M18.7703 13.36C18.6863 13.2587 18.5832 13.175 18.4669 13.1137C18.3505 13.0523 18.2232 13.0145 18.0922 13.0025C17.9613 12.9904 17.8292 13.0043 17.7036 13.0433C17.578 13.0824 17.4613 13.1458 17.3603 13.23L13.0003 16.86V5C13.0003 4.73478 12.8949 4.48043 12.7074 4.29289C12.5198 4.10536 12.2655 4 12.0003 4C11.7351 4 11.4807 4.10536 11.2932 4.29289C11.1056 4.48043 11.0003 4.73478 11.0003 5V16.86L6.64027 13.23C6.53915 13.146 6.42247 13.0826 6.29689 13.0437C6.17131 13.0047 6.03928 12.9909 5.90835 13.003C5.77742 13.0151 5.65015 13.0528 5.5338 13.1141C5.41746 13.1753 5.31432 13.2589 5.23027 13.36C5.14623 13.4611 5.08292 13.5778 5.04397 13.7034C5.00502 13.829 4.99118 13.961 5.00325 14.0919C5.01532 14.2229 5.05307 14.3501 5.11432 14.4665C5.17558 14.5828 5.25916 14.686 5.36027 14.77L11.3603 19.77L11.5103 19.86L11.6403 19.93C11.8719 20.0194 12.1286 20.0194 12.3603 19.93L12.4903 19.86L12.6403 19.77L18.6403 14.77C18.7415 14.6861 18.8252 14.583 18.8866 14.4666C18.9479 14.3503 18.9857 14.2229 18.9978 14.092C19.0099 13.961 18.996 13.8289 18.957 13.7033C18.9179 13.5777 18.8545 13.461 18.7703 13.36V13.36Z" fill="#272A36"/>
</svg>
