<?xml version="1.0" standalone="no"?>
<!DOCTYPE svg PUBLIC "-//W3C//DTD SVG 20010904//EN"
 "http://www.w3.org/TR/2001/REC-SVG-20010904/DTD/svg10.dtd">
<svg version="1.0" xmlns="http://www.w3.org/2000/svg"
 width="1518.000000pt" height="1519.000000pt" viewBox="0 0 1518.000000 1519.000000"
 preserveAspectRatio="xMidYMid meet">
<metadata>
Created by potrace 1.16, written by Peter Selinger 2001-2019
</metadata>
<g transform="translate(0.000000,1519.000000) scale(0.100000,-0.100000)"
fill="#000000" stroke="none">
<path d="M12356 11519 c2 -486 6 -915 8 -953 l4 -68 486 -487 486 -486 -890
-890 c-490 -489 -890 -896 -890 -902 0 -7 -6 -13 -13 -13 -6 0 -248 -236 -536
-524 l-524 -524 -8 -234 c-4 -128 -8 -294 -8 -368 l-1 -135 1800 1800 c990
990 1800 1804 1800 1810 0 5 -270 280 -600 610 l-599 600 -11 170 c-5 94 -10
192 -10 220 l0 50 810 -810 810 -810 -2000 -2000 -2000 -2000 0 -343 c0 -319
1 -342 18 -342 9 0 1026 1009 2357 2340 l2340 2340 -1417 1417 -1416 1416 4
-884z"/>
<path d="M820 9570 c0 -1132 4 -2000 9 -2000 5 0 306 302 670 671 l661 671 0
694 0 694 1257 0 1258 0 -2338 -2338 c-1285 -1285 -2337 -2342 -2337 -2347 0
-12 2811 -2825 2823 -2825 5 0 5 426 2 948 l-7 947 -489 490 -489 490 890 890
890 890 0 -3313 0 -3312 2001 0 c1397 0 2000 3 1997 11 -2 5 -305 307 -673
669 l-670 660 -692 0 -693 0 0 1257 0 1258 2340 -2340 2340 -2340 1418 1419
1417 1418 -955 -6 -955 -7 -487 -487 -488 -487 -897 895 c-494 492 -899 896
-902 898 -2 1 6 14 20 30 l23 27 -24 -23 -25 -22 -525 524 -525 524 -359 12
c-197 6 -361 8 -364 5 -4 -3 805 -817 1796 -1808 l1802 -1802 607 606 608 606
215 11 c118 5 216 9 217 8 1 -1 -362 -366 -807 -811 l-810 -810 -2003 2003
-2004 2004 -336 -7 -337 -8 0 749 -1 749 -245 260 c-136 143 -250 262 -255
263 -5 2 -9 -1047 -9 -2547 l0 -2551 854 0 854 0 161 -146 c89 -80 161 -147
161 -150 0 -2 -515 -4 -1145 -4 l-1145 0 0 2832 0 2833 -237 237 -238 238 526
528 527 527 10 360 c5 198 8 362 5 365 -5 6 -3603 -3593 -3603 -3605 0 -5 270
-280 601 -611 l601 -601 9 -164 c5 -90 10 -190 12 -222 l3 -58 -813 813 -813
813 2000 2000 2000 2000 0 343 0 342 748 0 747 0 235 221 c129 121 248 234
265 250 l30 29 -2553 0 -2552 0 0 -851 0 -851 -137 -151 c-75 -84 -142 -159
-150 -167 -11 -12 -13 180 -13 1133 l0 1147 2833 0 2832 0 233 239 c127 132
232 244 232 249 0 5 -7 13 -16 16 -9 3 -1503 6 -3320 6 l-3304 0 0 -2000z"/>
</g>
</svg>
