<svg width="356" height="260" viewBox="0 0 356 260" fill="none" xmlns="http://www.w3.org/2000/svg">
<path d="M0 8C0 3.58172 3.58172 0 8 0H348C352.418 0 356 3.58172 356 8V252C356 256.418 352.418 260 348 260H8C3.58172 260 0 256.418 0 252V8Z" fill="#8FD3F1"/>
<mask id="mask0" mask-type="alpha" maskUnits="userSpaceOnUse" x="0" y="0" width="356" height="260">
<path d="M0 8C0 3.58172 3.58172 0 8 0H348C352.418 0 356 3.58172 356 8V252C356 256.418 352.418 260 348 260H8C3.58172 260 0 256.418 0 252V8Z" fill="#8FD3F1"/>
</mask>
<g mask="url(#mask0)">
<path d="M500.889 154.424L303.392 216.272L348.272 14.6446L500.889 154.424Z" fill="url(#paint0_linear)"/>
<path d="M354.786 76.1097L321.76 221.299L511.562 160.667" stroke="#4CAEDA"/>
<path d="M-145.616 107.854L45.7491 186.657L-117.729 312.922L-145.616 107.854Z" fill="#69BDE2"/>
<path d="M-83.418 261.511L34.846 171.043L-149.827 96.2271" stroke="#2589B5"/>
<path d="M126.019 217.483L1.0535 52.5156L205.983 26.6005L126.019 217.483Z" fill="url(#paint1_linear)"/>
<path d="M162.776 16.5041L14.9684 34.4978L136.188 192.634" stroke="#4CAEDA"/>
</g>
<defs>
<linearGradient id="paint0_linear" x1="327.744" y1="204.451" x2="378.355" y2="-0.643974" gradientUnits="userSpaceOnUse">
<stop stop-color="#74C9EF"/>
<stop offset="1" stop-color="#8FD3F1" stop-opacity="0.5"/>
</linearGradient>
<linearGradient id="paint1_linear" x1="20.4106" y1="71.4382" x2="230.541" y2="49.7456" gradientUnits="userSpaceOnUse">
<stop stop-color="#B3DFF2"/>
<stop offset="1" stop-color="#AEE6FE" stop-opacity="0.5"/>
</linearGradient>
</defs>
</svg>
