<svg width="1132" height="400" viewBox="0 0 1132 400" fill="none" xmlns="http://www.w3.org/2000/svg">
<path d="M0 7.99999C0 3.58171 3.58172 0 8 0H1124C1128.42 0 1132 3.58172 1132 8V392C1132 396.418 1128.42 400 1124 400H8.00001C3.58173 400 0 396.418 0 392V7.99999Z" fill="#8FD3F1"/>
<mask id="mask0" mask-type="alpha" maskUnits="userSpaceOnUse" x="0" y="0" width="1132" height="400">
<path d="M0 7.99999C0 3.58171 3.58172 0 8 0H1124C1128.42 0 1132 3.58172 1132 8V392C1132 396.418 1128.42 400 1124 400H8.00001C3.58173 400 0 396.418 0 392V7.99999Z" fill="#8FD3F1"/>
</mask>
<g mask="url(#mask0)">
<path d="M1345.19 240.999L917.029 375.081L1014.32 -62.0311L1345.19 240.999Z" fill="url(#paint0_linear)"/>
<path d="M1028.45 71.2201L956.85 385.98L1368.33 254.534" stroke="#4CAEDA"/>
<path d="M-56.3826 140.039L358.481 310.878L4.07309 584.609L-56.3826 140.039Z" fill="#69BDE2"/>
<path d="M78.4581 473.155L334.845 277.028L-65.5103 114.833" stroke="#2589B5"/>
<path d="M532.498 377.706L261.584 20.0701L705.855 -36.1118L532.498 377.706Z" fill="url(#paint1_linear)"/>
<path d="M612.185 -58L291.751 -18.9911L554.545 323.836" stroke="#4CAEDA"/>
</g>
<defs>
<linearGradient id="paint0_linear" x1="969.822" y1="349.453" x2="1079.54" y2="-95.1755" gradientUnits="userSpaceOnUse">
<stop stop-color="#74C9EF"/>
<stop offset="1" stop-color="#8FD3F1" stop-opacity="0.5"/>
</linearGradient>
<linearGradient id="paint1_linear" x1="303.548" y1="61.0928" x2="759.094" y2="14.065" gradientUnits="userSpaceOnUse">
<stop stop-color="#B3DFF2"/>
<stop offset="1" stop-color="#AEE6FE" stop-opacity="0.5"/>
</linearGradient>
</defs>
</svg>
