<svg width="694" height="400" viewBox="0 0 694 400" fill="none" xmlns="http://www.w3.org/2000/svg">
<path d="M0 7.99999C0 3.58171 3.58172 0 8 0H686C690.418 0 694 3.58172 694 8V392C694 396.418 690.418 400 686 400H7.99999C3.58171 400 0 396.418 0 392V7.99999Z" fill="#FCB737"/>
<mask id="mask0" mask-type="alpha" maskUnits="userSpaceOnUse" x="0" y="0" width="694" height="400">
<path d="M0 7.99999C0 3.58171 3.58172 0 8 0H686C690.418 0 694 3.58172 694 8V392C694 396.418 690.418 400 686 400H7.99999C3.58171 400 0 396.418 0 392V7.99999Z" fill="#FD9704"/>
</mask>
<g mask="url(#mask0)">
<path d="M606.931 -40.9078L535.332 273.852L946.809 142.406" stroke="#FA6501"/>
<path d="M604.931 -86.9078L533.332 227.852L944.809 96.4065" stroke="#FCB737"/>
<path d="M93.9678 558.621L350.355 362.494L-50.0005 200.3" stroke="#FFDC9C"/>
<path d="M286.185 -3L-34.2492 36.0089L228.545 378.836" stroke="#FA6501"/>
</g>
</svg>
