<svg width="1172" height="326" viewBox="0 0 1172 326" fill="none" xmlns="http://www.w3.org/2000/svg">
<g filter="url(#filter0_d)">
<path d="M18 38C18 26.9543 26.9543 18 38 18H1130C1141.05 18 1150 26.9543 1150 38V284C1150 295.046 1141.05 304 1130 304H38C26.9543 304 18 295.046 18 284V38Z" fill="#ACE0F7"/>
</g>
<mask id="mask0" mask-type="alpha" maskUnits="userSpaceOnUse" x="18" y="18" width="1132" height="286">
<path d="M18 38C18 26.9543 26.9543 18 38 18H1130C1141.05 18 1150 26.9543 1150 38V284C1150 295.046 1141.05 304 1130 304H38C26.9543 304 18 295.046 18 284V38Z" fill="#8FD3F1"/>
</mask>
<g mask="url(#mask0)">
<circle cx="1022.21" cy="76.2051" r="200" transform="rotate(30 1022.21 76.2051)" fill="url(#paint0_linear)"/>
<circle cx="517" cy="-15" r="200" fill="url(#paint1_linear)"/>
<circle cx="129" cy="260" r="200" fill="#7ECBED"/>
<circle cx="1062.91" cy="99.7051" r="199.5" transform="rotate(30 1062.91 99.7051)" stroke="#4CAEDA"/>
<circle cx="492" cy="-39" r="199.5" stroke="#4CAEDA"/>
<circle cx="117" cy="228" r="199.5" stroke="#2589B5"/>
</g>
<defs>
<filter id="filter0_d" x="0" y="0" width="1172" height="326" filterUnits="userSpaceOnUse" color-interpolation-filters="sRGB">
<feFlood flood-opacity="0" result="BackgroundImageFix"/>
<feColorMatrix in="SourceAlpha" type="matrix" values="0 0 0 0 0 0 0 0 0 0 0 0 0 0 0 0 0 0 127 0"/>
<feOffset dx="2" dy="2"/>
<feGaussianBlur stdDeviation="10"/>
<feColorMatrix type="matrix" values="0 0 0 0 0.152941 0 0 0 0 0.164706 0 0 0 0 0.211765 0 0 0 0.1 0"/>
<feBlend mode="normal" in2="BackgroundImageFix" result="effect1_dropShadow"/>
<feBlend mode="normal" in="SourceGraphic" in2="effect1_dropShadow" result="shape"/>
</filter>
<linearGradient id="paint0_linear" x1="857.205" y1="149.205" x2="1222.21" y2="7.20508" gradientUnits="userSpaceOnUse">
<stop stop-color="#92D3F0"/>
<stop offset="1" stop-color="#88D3F5" stop-opacity="0.5"/>
</linearGradient>
<linearGradient id="paint1_linear" x1="517" y1="-215" x2="517" y2="185" gradientUnits="userSpaceOnUse">
<stop stop-color="#D4EBF5" stop-opacity="0.5"/>
<stop offset="1" stop-color="#CAEBFA"/>
</linearGradient>
</defs>
</svg>
