<svg width="406" height="400" viewBox="0 0 406 400" fill="none" xmlns="http://www.w3.org/2000/svg">
<path d="M0 7.99999C0 3.58171 3.58172 0 8 0H398C402.418 0 406 3.58172 406 8V392C406 396.418 402.418 400 398 400H8.00001C3.58173 400 0 396.418 0 392V7.99999Z" fill="#FF6F9A"/>
<mask id="mask0" mask-type="alpha" maskUnits="userSpaceOnUse" x="0" y="0" width="406" height="400">
<path d="M0 7.99999C0 3.58171 3.58172 0 8 0H398C402.418 0 406 3.58172 406 8V392C406 396.418 402.418 400 398 400H8.00001C3.58173 400 0 396.418 0 392V7.99999Z" fill="#FC5184"/>
</mask>
<g mask="url(#mask0)">
<path d="M653.188 338.999L225.029 473.081L322.325 35.9689L653.188 338.999Z" fill="url(#paint0_linear)"/>
<path d="M-161.383 43.0388L253.481 213.878L-100.927 487.609L-161.383 43.0388Z" fill="#FF94B4"/>
<path d="M340.539 286.739L69.6245 -70.8969L513.896 -127.079L340.539 286.739Z" fill="url(#paint1_linear)"/>
</g>
<defs>
<linearGradient id="paint0_linear" x1="653.188" y1="338.999" x2="147.173" y2="226.367" gradientUnits="userSpaceOnUse">
<stop stop-color="#FF94B4"/>
<stop offset="1" stop-color="#FF94B4" stop-opacity="0"/>
</linearGradient>
<linearGradient id="paint1_linear" x1="340.539" y1="286.739" x2="275.501" y2="-227.563" gradientUnits="userSpaceOnUse">
<stop stop-color="#FF94B4"/>
<stop offset="1" stop-color="#FF94B4" stop-opacity="0"/>
</linearGradient>
</defs>
</svg>
