<svg width="1440" height="800" viewBox="0 0 1440 800" fill="none" xmlns="http://www.w3.org/2000/svg">
<path d="M0 0H1440V800H0V0Z" fill="url(#paint0_linear)"/>
<mask id="mask0" mask-type="alpha" maskUnits="userSpaceOnUse" x="0" y="0" width="1440" height="800">
<path d="M0 0H1440V800H0V0Z" fill="#FBFBFB"/>
</mask>
<g mask="url(#mask0)">
<circle cx="240" cy="-152" r="539" stroke="#E6EAFF" stroke-width="2"/>
<circle cx="1175.21" cy="62.2051" r="200" transform="rotate(30 1175.21 62.2051)" fill="url(#paint1_linear)"/>
<circle cx="1215.91" cy="85.7051" r="199.5" transform="rotate(30 1215.91 85.7051)" stroke="#96A8FB"/>
<circle cx="74.2051" cy="225.205" r="200" transform="rotate(30 74.2051 225.205)" fill="url(#paint2_linear)"/>
<circle cx="114.908" cy="248.705" r="199.5" transform="rotate(30 114.908 248.705)" stroke="#96A8FB"/>
<circle cx="1530.95" cy="428.949" r="200" transform="rotate(75 1530.95 428.949)" fill="url(#paint3_linear)"/>
<circle cx="1543.11" cy="474.347" r="199.5" transform="rotate(75 1543.11 474.347)" stroke="#96A8FB"/>
<circle cx="894" cy="-253" r="865" stroke="#E6EAFF" stroke-width="2"/>
</g>
<defs>
<linearGradient id="paint0_linear" x1="720" y1="0" x2="720" y2="800" gradientUnits="userSpaceOnUse">
<stop stop-color="#EDF0FF"/>
<stop offset="1" stop-color="#F4F6FF" stop-opacity="0"/>
</linearGradient>
<linearGradient id="paint1_linear" x1="1175.21" y1="-137.795" x2="1175.21" y2="262.205" gradientUnits="userSpaceOnUse">
<stop stop-color="#889CFA"/>
<stop offset="1" stop-color="#93A4F7" stop-opacity="0.5"/>
</linearGradient>
<linearGradient id="paint2_linear" x1="74.2051" y1="25.2051" x2="74.2051" y2="425.205" gradientUnits="userSpaceOnUse">
<stop stop-color="#BFC9F4"/>
<stop offset="1" stop-color="#E0E5FD" stop-opacity="0.5"/>
</linearGradient>
<linearGradient id="paint3_linear" x1="1530.95" y1="228.949" x2="1530.95" y2="628.949" gradientUnits="userSpaceOnUse">
<stop stop-color="#BFC9F4"/>
<stop offset="1" stop-color="#E0E5FD" stop-opacity="0.5"/>
</linearGradient>
</defs>
</svg>
