<svg width="356" height="260" viewBox="0 0 356 260" fill="none" xmlns="http://www.w3.org/2000/svg">
<path d="M0 8C0 3.58172 3.58172 0 8 0H348C352.418 0 356 3.58172 356 8V252C356 256.418 352.418 260 348 260H8C3.58172 260 0 256.418 0 252V8Z" fill="#FCB737"/>
<mask id="mask0" mask-type="alpha" maskUnits="userSpaceOnUse" x="0" y="0" width="356" height="260">
<path d="M0 8C0 3.58172 3.58172 0 8 0H348C352.418 0 356 3.58172 356 8V252C356 256.418 352.418 260 348 260H8C3.58172 260 0 256.418 0 252V8Z" fill="#FD9704"/>
</mask>
<g mask="url(#mask0)">
<path d="M304.469 -4.48809L265.553 166.589L489.198 95.1463" stroke="#FA6501"/>
<path d="M303.382 -29.4899L264.466 141.587L488.111 70.1445" stroke="#FFDC9C"/>
<path d="M25.6645 321.366L165.015 214.768L-52.5847 126.612" stroke="#FFDC9C"/>
<path d="M130.137 16.1155L-44.0243 37.3175L98.8087 223.65" stroke="#FA6501"/>
</g>
</svg>
