<svg width="694" height="400" viewBox="0 0 694 400" fill="none" xmlns="http://www.w3.org/2000/svg">
<path d="M0 7.99999C0 3.58171 3.58172 0 8 0H686C690.418 0 694 3.58172 694 8V392C694 396.418 690.418 400 686 400H7.99999C3.58171 400 0 396.418 0 392V7.99999Z" fill="#6580FD"/>
<mask id="mask0" mask-type="alpha" maskUnits="userSpaceOnUse" x="0" y="0" width="694" height="400">
<path d="M0 7.99999C0 3.58171 3.58172 0 8 0H686C690.418 0 694 3.58172 694 8V392C694 396.418 690.418 400 686 400H7.99999C3.58171 400 0 396.418 0 392V7.99999Z" fill="#5270FC"/>
</mask>
<g mask="url(#mask0)">
<circle cx="614" cy="-35" r="200" fill="url(#paint0_linear)"/>
<circle cx="192" cy="172" r="200" fill="#758DFF"/>
<circle cx="589" cy="-59" r="199.5" stroke="#4CAEDA"/>
<circle cx="180" cy="140" r="199.5" stroke="#2589B5"/>
</g>
<defs>
<linearGradient id="paint0_linear" x1="614" y1="-235" x2="614" y2="165" gradientUnits="userSpaceOnUse">
<stop stop-color="#96A8FB"/>
<stop offset="1" stop-color="#96A8FB" stop-opacity="0"/>
</linearGradient>
</defs>
</svg>
