<svg width="406" height="400" viewBox="0 0 406 400" fill="none" xmlns="http://www.w3.org/2000/svg">
<path d="M0 7.99999C0 3.58171 3.58172 0 8 0H398C402.418 0 406 3.58172 406 8V392C406 396.418 402.418 400 398 400H8.00001C3.58173 400 0 396.418 0 392V7.99999Z" fill="#885EF4"/>
<mask id="mask0" mask-type="alpha" maskUnits="userSpaceOnUse" x="0" y="0" width="406" height="400">
<path d="M0 7.99999C0 3.58171 3.58172 0 8 0H398C402.418 0 406 3.58172 406 8V392C406 396.418 402.418 400 398 400H8.00001C3.58173 400 0 396.418 0 392V7.99999Z" fill="#7446EB"/>
</mask>
<g mask="url(#mask0)">
<circle cx="446.908" cy="317.705" r="199.5" transform="rotate(30 446.908 317.705)" stroke="#C2AAFF"/>
<circle cx="269.205" cy="533.205" r="199.5" transform="rotate(30 269.205 533.205)" stroke="#C2AAFF"/>
<circle cx="83.2051" cy="327.205" r="199.5" transform="rotate(30 83.2051 327.205)" stroke="#3F277E"/>
<circle cx="51.5" cy="-0.5" r="273" stroke="#C2AAFF"/>
</g>
</svg>
