<svg width="1440" height="400" viewBox="0 0 1440 400" fill="none" xmlns="http://www.w3.org/2000/svg">
<path d="M0 0H1440V400H0V0Z" fill="#7446EB"/>
<mask id="mask0" mask-type="alpha" maskUnits="userSpaceOnUse" x="0" y="0" width="1440" height="400">
<path d="M0 0H1440V400H0V0Z" fill="#FBFBFB"/>
</mask>
<g mask="url(#mask0)">
<circle cx="250" cy="108" r="539" stroke="#A17CFF" stroke-width="2"/>
<circle cx="1050" cy="-337" r="539" stroke="#A17CFF" stroke-width="2"/>
<circle cx="1111.21" cy="353.205" r="200" transform="rotate(30 1111.21 353.205)" fill="url(#paint0_linear)"/>
<circle cx="1111.21" cy="353.205" r="200" transform="rotate(30 1111.21 353.205)" fill="url(#paint1_linear)"/>
<circle cx="1111.21" cy="353.205" r="200" transform="rotate(30 1111.21 353.205)" fill="url(#paint2_linear)"/>
<circle cx="1151.91" cy="376.705" r="199.5" transform="rotate(30 1151.91 376.705)" stroke="#3F277E"/>
<circle cx="161.205" cy="482.205" r="200" transform="rotate(30 161.205 482.205)" fill="url(#paint3_linear)"/>
<circle cx="201.908" cy="505.705" r="199.5" transform="rotate(30 201.908 505.705)" stroke="#3F277E"/>
<circle cx="971.5" cy="74.5" r="932.5" stroke="#A17CFF" stroke-width="2"/>
</g>
<defs>
<linearGradient id="paint0_linear" x1="1111.21" y1="153.205" x2="1111.21" y2="553.205" gradientUnits="userSpaceOnUse">
<stop stop-color="#8257F1"/>
<stop offset="1" stop-color="#8257F1" stop-opacity="0.5"/>
</linearGradient>
<linearGradient id="paint1_linear" x1="1111.21" y1="153.205" x2="1111.21" y2="553.205" gradientUnits="userSpaceOnUse">
<stop stop-color="#8257F1"/>
<stop offset="1" stop-color="#8257F1" stop-opacity="0.5"/>
</linearGradient>
<linearGradient id="paint2_linear" x1="1111.21" y1="153.205" x2="1111.21" y2="553.205" gradientUnits="userSpaceOnUse">
<stop stop-color="#8257F1"/>
<stop offset="1" stop-color="#8257F1" stop-opacity="0.5"/>
</linearGradient>
<linearGradient id="paint3_linear" x1="161.205" y1="282.205" x2="161.205" y2="682.205" gradientUnits="userSpaceOnUse">
<stop stop-color="#8E68F0"/>
<stop offset="1" stop-color="#8257F1" stop-opacity="0.5"/>
</linearGradient>
</defs>
</svg>
