<svg width="356" height="260" viewBox="0 0 356 260" fill="none" xmlns="http://www.w3.org/2000/svg">
<path d="M0 8C0 3.58172 3.58172 0 8 0H348C352.418 0 356 3.58172 356 8V252C356 256.418 352.418 260 348 260H8C3.58172 260 0 256.418 0 252V8Z" fill="#885EF4"/>
<mask id="mask0" mask-type="alpha" maskUnits="userSpaceOnUse" x="0" y="0" width="356" height="260">
<path d="M0 8C0 3.58172 3.58172 0 8 0H348C352.418 0 356 3.58172 356 8V252C356 256.418 352.418 260 348 260H8C3.58172 260 0 256.418 0 252V8Z" fill="#7446EB"/>
</mask>
<g mask="url(#mask0)">
<circle cx="338.946" cy="169.436" r="151.074" transform="rotate(30 338.946 169.436)" stroke="#C2AAFF"/>
<circle cx="204.27" cy="332.757" r="151.074" transform="rotate(30 204.27 332.757)" stroke="#C2AAFF"/>
<circle cx="63.3062" cy="176.636" r="151.074" transform="rotate(30 63.3062 176.636)" stroke="#3F277E"/>
<circle cx="39.5" cy="-71.5" r="207" stroke="#C2AAFF"/>
</g>
</svg>
