<svg width="356" height="260" viewBox="0 0 356 260" fill="none" xmlns="http://www.w3.org/2000/svg">
<path d="M0 8C0 3.58172 3.58172 0 8 0H348C352.418 0 356 3.58172 356 8V252C356 256.418 352.418 260 348 260H8C3.58172 260 0 256.418 0 252V8Z" fill="#FF6F9A"/>
<mask id="mask0" mask-type="alpha" maskUnits="userSpaceOnUse" x="0" y="0" width="356" height="260">
<path d="M0 8C0 3.58172 3.58172 0 8 0H348C352.418 0 356 3.58172 356 8V252C356 256.418 352.418 260 348 260H8C3.58172 260 0 256.418 0 252V8Z" fill="#FC5184"/>
</mask>
<g mask="url(#mask0)">
<path d="M592.188 303.149L189.656 429.206L281.128 18.2548L592.188 303.149Z" fill="url(#paint0_linear)"/>
<path d="M-173.629 24.9016L216.404 185.516L-116.792 442.864L-173.629 24.9016Z" fill="#FF94B4"/>
<path d="M298.252 254.016L43.5522 -82.2149L461.234 -135.034L298.252 254.016Z" fill="url(#paint1_linear)"/>
</g>
<defs>
<linearGradient id="paint0_linear" x1="592.188" y1="303.149" x2="116.46" y2="197.257" gradientUnits="userSpaceOnUse">
<stop stop-color="#FF94B4"/>
<stop offset="1" stop-color="#FF94B4" stop-opacity="0"/>
</linearGradient>
<linearGradient id="paint1_linear" x1="298.252" y1="254.016" x2="237.107" y2="-229.505" gradientUnits="userSpaceOnUse">
<stop stop-color="#FF94B4"/>
<stop offset="1" stop-color="#FF94B4" stop-opacity="0"/>
</linearGradient>
</defs>
</svg>
