<svg width="24" height="24" viewBox="0 0 24 24" fill="none" xmlns="http://www.w3.org/2000/svg">
<path d="M6.72021 9.1143L3.25736 12L6.72021 14.8857C6.94943 15.0767 7.09339 15.351 7.12041 15.6481C7.14743 15.9453 7.05531 16.241 6.8643 16.4702C6.67329 16.6994 6.39905 16.8434 6.10191 16.8704C5.80476 16.8974 5.50905 16.8053 5.27983 16.6143L0.779831 12.8643C0.653124 12.7587 0.551182 12.6266 0.481223 12.4772C0.411264 12.3279 0.375 12.1649 0.375 12C0.375 11.8351 0.411264 11.6722 0.481223 11.5228C0.551182 11.3735 0.653124 11.2413 0.779831 11.1357L5.27983 7.38573C5.50907 7.19473 5.80479 7.10261 6.10194 7.12964C6.3991 7.15667 6.67334 7.30064 6.86435 7.52987C7.05535 7.75911 7.14747 8.05483 7.12044 8.35198C7.09341 8.64914 6.94944 8.92338 6.72021 9.11439V9.1143ZM23.2202 11.1357L18.7202 7.38573C18.6067 7.29116 18.4757 7.21986 18.3346 7.17592C18.1936 7.13198 18.0453 7.11624 17.8981 7.12962C17.751 7.14301 17.6079 7.18523 17.4771 7.2539C17.3463 7.32257 17.2303 7.41633 17.1357 7.52983C17.0412 7.64333 16.9699 7.77434 16.9259 7.91539C16.882 8.05645 16.8663 8.20477 16.8796 8.3519C16.893 8.49903 16.9352 8.64209 17.0039 8.7729C17.0726 8.90371 17.1663 9.01972 17.2798 9.1143L20.7427 12L17.2798 14.8857C17.0506 15.0767 16.9067 15.351 16.8796 15.6481C16.8526 15.9453 16.9447 16.241 17.1357 16.4702C17.3267 16.6994 17.601 16.8434 17.8981 16.8704C18.1953 16.8974 18.491 16.8053 18.7202 16.6143L23.2202 12.8643C23.3469 12.7587 23.4489 12.6266 23.5188 12.4772C23.5888 12.3279 23.625 12.1649 23.625 12C23.625 11.8351 23.5888 11.6722 23.5188 11.5228C23.4489 11.3735 23.3469 11.2413 23.2202 11.1357V11.1357ZM15.3846 2.69279C15.1042 2.59083 14.7947 2.60443 14.5243 2.73059C14.2539 2.85675 14.0447 3.08515 13.9427 3.36554L7.94271 19.8655C7.84074 20.1459 7.85434 20.4554 7.98051 20.7258C8.10669 20.9961 8.3351 21.2053 8.6155 21.3073C8.89591 21.4092 9.20533 21.3956 9.47571 21.2695C9.74609 21.1433 9.95527 20.9149 10.0572 20.6345L16.0572 4.13448C16.1592 3.85409 16.1456 3.54468 16.0194 3.27432C15.8933 3.00395 15.6649 2.79477 15.3845 2.69279H15.3846Z" fill="#67696F"/>
</svg>
