<svg width="24" height="24" viewBox="0 0 24 24" fill="none" xmlns="http://www.w3.org/2000/svg">
<mask id="path-1-outside-1" maskUnits="userSpaceOnUse" x="2" y="1.99997" width="20" height="20" fill="black">
<rect fill="white" x="2" y="1.99997" width="20" height="20"/>
<path fill-rule="evenodd" clip-rule="evenodd" d="M18.403 5.633C17.5714 4.79588 16.5819 4.13211 15.4919 3.68015C14.4019 3.22818 13.233 2.997 12.053 3C7.105 3 3.077 7.027 3.075 11.977C3.075 13.559 3.488 15.103 4.273 16.465L3 21.116L7.759 19.867C9.07539 20.5836 10.5502 20.9593 12.049 20.96H12.053C17 20.96 21.028 16.933 21.03 11.983C21.0334 10.8035 20.803 9.63499 20.3521 8.54506C19.9012 7.45513 19.2387 6.46537 18.403 5.633V5.633ZM12.053 19.445H12.05C10.7135 19.4451 9.40163 19.0856 8.252 18.404L7.98 18.242L5.156 18.983L5.909 16.23L5.732 15.948C4.98479 14.7584 4.58923 13.3818 4.591 11.977C4.593 7.863 7.94 4.516 12.056 4.516C13.0363 4.51382 14.0072 4.70608 14.9127 5.08165C15.8181 5.45722 16.6401 6.00864 17.331 6.704C18.0256 7.39604 18.5762 8.21889 18.9509 9.125C19.3256 10.0311 19.517 11.0025 19.514 11.983C19.512 16.097 16.165 19.445 12.053 19.445ZM16.146 13.856C15.921 13.743 14.819 13.201 14.613 13.126C14.408 13.051 14.259 13.014 14.109 13.238C13.959 13.462 13.529 13.967 13.398 14.117C13.267 14.267 13.136 14.285 12.912 14.173C12.688 14.061 11.965 13.824 11.108 13.06C10.441 12.465 9.991 11.731 9.86 11.506C9.729 11.281 9.846 11.16 9.959 11.048C10.06 10.948 10.183 10.786 10.295 10.655C10.407 10.524 10.444 10.431 10.519 10.281C10.594 10.131 10.557 10 10.5 9.888C10.444 9.775 9.995 8.671 9.808 8.222C9.627 7.787 9.442 7.845 9.304 7.839C9.16108 7.83315 9.01804 7.83048 8.875 7.831C8.76126 7.8339 8.64934 7.86026 8.54626 7.90845C8.44318 7.95663 8.35117 8.02559 8.276 8.111C8.07 8.336 7.491 8.878 7.491 9.982C7.491 11.086 8.295 12.153 8.407 12.303C8.519 12.453 9.989 14.718 12.239 15.69C12.775 15.921 13.193 16.059 13.518 16.163C14.055 16.334 14.544 16.309 14.931 16.252C15.362 16.188 16.258 15.71 16.445 15.186C16.632 14.662 16.632 14.213 16.576 14.119C16.52 14.025 16.369 13.968 16.146 13.856"/>
</mask>
<path fill-rule="evenodd" clip-rule="evenodd" d="M18.403 5.633C17.5714 4.79588 16.5819 4.13211 15.4919 3.68015C14.4019 3.22818 13.233 2.997 12.053 3C7.105 3 3.077 7.027 3.075 11.977C3.075 13.559 3.488 15.103 4.273 16.465L3 21.116L7.759 19.867C9.07539 20.5836 10.5502 20.9593 12.049 20.96H12.053C17 20.96 21.028 16.933 21.03 11.983C21.0334 10.8035 20.803 9.63499 20.3521 8.54506C19.9012 7.45513 19.2387 6.46537 18.403 5.633V5.633ZM12.053 19.445H12.05C10.7135 19.4451 9.40163 19.0856 8.252 18.404L7.98 18.242L5.156 18.983L5.909 16.23L5.732 15.948C4.98479 14.7584 4.58923 13.3818 4.591 11.977C4.593 7.863 7.94 4.516 12.056 4.516C13.0363 4.51382 14.0072 4.70608 14.9127 5.08165C15.8181 5.45722 16.6401 6.00864 17.331 6.704C18.0256 7.39604 18.5762 8.21889 18.9509 9.125C19.3256 10.0311 19.517 11.0025 19.514 11.983C19.512 16.097 16.165 19.445 12.053 19.445ZM16.146 13.856C15.921 13.743 14.819 13.201 14.613 13.126C14.408 13.051 14.259 13.014 14.109 13.238C13.959 13.462 13.529 13.967 13.398 14.117C13.267 14.267 13.136 14.285 12.912 14.173C12.688 14.061 11.965 13.824 11.108 13.06C10.441 12.465 9.991 11.731 9.86 11.506C9.729 11.281 9.846 11.16 9.959 11.048C10.06 10.948 10.183 10.786 10.295 10.655C10.407 10.524 10.444 10.431 10.519 10.281C10.594 10.131 10.557 10 10.5 9.888C10.444 9.775 9.995 8.671 9.808 8.222C9.627 7.787 9.442 7.845 9.304 7.839C9.16108 7.83315 9.01804 7.83048 8.875 7.831C8.76126 7.8339 8.64934 7.86026 8.54626 7.90845C8.44318 7.95663 8.35117 8.02559 8.276 8.111C8.07 8.336 7.491 8.878 7.491 9.982C7.491 11.086 8.295 12.153 8.407 12.303C8.519 12.453 9.989 14.718 12.239 15.69C12.775 15.921 13.193 16.059 13.518 16.163C14.055 16.334 14.544 16.309 14.931 16.252C15.362 16.188 16.258 15.71 16.445 15.186C16.632 14.662 16.632 14.213 16.576 14.119C16.52 14.025 16.369 13.968 16.146 13.856" fill="white"/>
<path d="M12.053 3L12.053 3.25L12.0536 3.25L12.053 3ZM3.075 11.977L2.825 11.9769V11.977H3.075ZM4.273 16.465L4.51413 16.531L4.54165 16.4305L4.4896 16.3402L4.273 16.465ZM3 21.116L2.75887 21.05L2.64453 21.4678L3.06346 21.3578L3 21.116ZM7.759 19.867L7.87853 19.6474L7.79144 19.6L7.69554 19.6252L7.759 19.867ZM12.049 20.96L12.0489 21.21H12.049V20.96ZM21.03 11.983L20.78 11.9823L20.78 11.9829L21.03 11.983ZM12.05 19.445L12.05 19.195L12.05 19.195L12.05 19.445ZM8.252 18.404L8.12407 18.6188L8.12451 18.619L8.252 18.404ZM7.98 18.242L8.10793 18.0272L8.0179 17.9736L7.91655 18.0002L7.98 18.242ZM5.156 18.983L4.91486 18.917L4.80062 19.3347L5.21945 19.2248L5.156 18.983ZM5.909 16.23L6.15014 16.296L6.1791 16.1901L6.12075 16.0971L5.909 16.23ZM5.732 15.948L5.94375 15.8151L5.9437 15.815L5.732 15.948ZM4.591 11.977L4.841 11.9773L4.841 11.9771L4.591 11.977ZM12.056 4.516L12.056 4.766L12.0566 4.766L12.056 4.516ZM17.331 6.704L17.1537 6.88021L17.1546 6.8811L17.331 6.704ZM19.514 11.983L19.264 11.9822L19.264 11.9829L19.514 11.983ZM14.613 13.126L14.5271 13.3608L14.5275 13.3609L14.613 13.126ZM11.108 13.06L10.9416 13.2466L10.9416 13.2466L11.108 13.06ZM9.959 11.048L9.7831 10.8703L9.78301 10.8704L9.959 11.048ZM10.5 9.888L10.276 9.99901L10.2772 10.0014L10.5 9.888ZM9.808 8.222L9.57718 8.31804L9.57722 8.31812L9.808 8.222ZM9.304 7.839L9.31486 7.58923L9.31422 7.58921L9.304 7.839ZM8.875 7.831L8.8741 7.58094L8.86863 7.58108L8.875 7.831ZM8.276 8.111L8.46043 8.27985L8.46366 8.27617L8.276 8.111ZM12.239 15.69L12.1399 15.9195L12.1401 15.9196L12.239 15.69ZM13.518 16.163L13.4418 16.4011L13.4421 16.4012L13.518 16.163ZM14.931 16.252L14.9674 16.4993L14.9677 16.4993L14.931 16.252ZM18.5804 5.4568C17.7254 4.59622 16.7082 3.91385 15.5876 3.44921L15.3961 3.91108C16.4556 4.35038 17.4173 4.99554 18.2256 5.80919L18.5804 5.4568ZM15.5876 3.44921C14.4671 2.98458 13.2654 2.74692 12.0524 2.75L12.0536 3.25C13.2006 3.24708 14.3366 3.47178 15.3961 3.91108L15.5876 3.44921ZM12.053 2.75C6.96691 2.75 2.82706 6.88892 2.825 11.9769L3.325 11.9771C3.32694 7.16507 7.24309 3.25 12.053 3.25V2.75ZM2.825 11.977C2.825 13.6027 3.24944 15.1897 4.0564 16.5898L4.4896 16.3402C3.72656 15.0163 3.325 13.5153 3.325 11.977H2.825ZM4.03187 16.399L2.75887 21.05L3.24113 21.182L4.51413 16.531L4.03187 16.399ZM3.06346 21.3578L7.82246 20.1088L7.69554 19.6252L2.93654 20.8742L3.06346 21.3578ZM7.63947 20.0866C8.99251 20.8231 10.5084 21.2093 12.0489 21.21L12.0491 20.71C10.592 20.7094 9.15828 20.3441 7.87853 19.6474L7.63947 20.0866ZM12.049 21.21H12.053V20.71H12.049V21.21ZM12.053 21.21C17.1381 21.21 21.2779 17.0711 21.28 11.9831L20.78 11.9829C20.7781 16.7949 16.8619 20.71 12.053 20.71V21.21ZM21.28 11.9837C21.2835 10.7712 21.0466 9.56995 20.5831 8.44949L20.1211 8.64063C20.5593 9.70003 20.7833 10.8358 20.78 11.9823L21.28 11.9837ZM20.5831 8.44949C20.1196 7.32903 19.4385 6.31155 18.5794 5.45587L18.2266 5.81013C19.0389 6.61919 19.6828 7.58122 20.1211 8.64063L20.5831 8.44949ZM12.053 19.195H12.05V19.695H12.053V19.195ZM12.05 19.195C10.7584 19.1951 9.49053 18.8476 8.37949 18.1889L8.12451 18.619C9.31274 19.3235 10.6687 19.6951 12.05 19.695L12.05 19.195ZM8.37993 18.1892L8.10793 18.0272L7.85207 18.4568L8.12407 18.6188L8.37993 18.1892ZM7.91655 18.0002L5.09255 18.7412L5.21945 19.2248L8.04345 18.4838L7.91655 18.0002ZM5.39714 19.049L6.15014 16.296L5.66786 16.164L4.91486 18.917L5.39714 19.049ZM6.12075 16.0971L5.94375 15.8151L5.52025 16.0809L5.69725 16.3629L6.12075 16.0971ZM5.9437 15.815C5.22157 14.6654 4.83929 13.3349 4.841 11.9773L4.341 11.9767C4.33917 13.4286 4.74801 14.8515 5.5203 16.081L5.9437 15.815ZM4.841 11.9771C4.84293 8.00112 8.07805 4.766 12.056 4.766V4.266C7.80195 4.266 4.34307 7.72488 4.341 11.9769L4.841 11.9771ZM12.0566 4.766C13.0037 4.76389 13.942 4.94967 14.8169 5.31257L15.0084 4.85073C14.0724 4.46249 13.0688 4.26375 12.0554 4.266L12.0566 4.766ZM14.8169 5.31257C15.6918 5.67548 16.486 6.2083 17.1537 6.88021L17.5083 6.52779C16.7941 5.80898 15.9444 5.23896 15.0084 4.85073L14.8169 5.31257ZM17.1546 6.8811C17.8258 7.54983 18.3578 8.34496 18.7199 9.22053L19.1819 9.02946C18.7946 8.09283 18.2255 7.24225 17.5074 6.52689L17.1546 6.8811ZM18.7199 9.22053C19.0819 10.0961 19.2669 11.0348 19.264 11.9822L19.764 11.9838C19.7671 10.9702 19.5692 9.96609 19.1819 9.02946L18.7199 9.22053ZM19.264 11.9829C19.2621 15.959 16.0268 19.195 12.053 19.195V19.695C16.3032 19.695 19.7619 16.235 19.764 11.9831L19.264 11.9829ZM16.2582 13.6326C16.1443 13.5754 15.8113 13.411 15.4811 13.2516C15.1587 13.096 14.8166 12.9341 14.6985 12.8911L14.5275 13.3609C14.6154 13.3929 14.9273 13.5395 15.2637 13.7019C15.5922 13.8605 15.9227 14.0236 16.0338 14.0794L16.2582 13.6326ZM14.6989 12.8912C14.6037 12.8564 14.4609 12.8044 14.3118 12.8215C14.1355 12.8418 14.003 12.947 13.9013 13.0989L14.3167 13.3771C14.3423 13.3388 14.3595 13.3245 14.3658 13.3201C14.3687 13.3181 14.3697 13.3178 14.3689 13.3181C14.3682 13.3184 14.3679 13.3184 14.3689 13.3182C14.3717 13.3179 14.3838 13.3172 14.4121 13.3238C14.4414 13.3306 14.4769 13.3424 14.5271 13.3608L14.6989 12.8912ZM13.9013 13.0989C13.762 13.3069 13.3436 13.7992 13.2097 13.9525L13.5863 14.2814C13.7144 14.1348 14.156 13.6171 14.3167 13.3771L13.9013 13.0989ZM13.2097 13.9525C13.1884 13.9769 13.1743 13.9875 13.1673 13.9918C13.162 13.9951 13.1606 13.995 13.1601 13.995C13.155 13.9956 13.1195 13.9973 13.0238 13.9494L12.8002 14.3966C12.9285 14.4607 13.0705 14.5094 13.2196 14.4915C13.3793 14.4723 13.4967 14.384 13.5863 14.2814L13.2097 13.9525ZM13.0238 13.9494C12.7755 13.8252 12.099 13.6085 11.2744 12.8734L10.9416 13.2466C11.831 14.0395 12.6005 14.2968 12.8002 14.3966L13.0238 13.9494ZM11.2744 12.8734C10.637 12.3049 10.2028 11.598 10.076 11.3802L9.64395 11.6318C9.77917 11.864 10.245 12.6251 10.9416 13.2466L11.2744 12.8734ZM10.076 11.3802C10.0562 11.3461 10.0529 11.3282 10.0523 11.3237C10.052 11.3212 10.0521 11.3222 10.0522 11.322C10.0532 11.3194 10.0573 11.3103 10.0716 11.2926C10.0867 11.274 10.106 11.2543 10.135 11.2256L9.78301 10.8704C9.73325 10.9198 9.6331 11.015 9.58377 11.1472C9.52548 11.3035 9.54877 11.4683 9.64395 11.6318L10.076 11.3802ZM10.1349 11.2257C10.245 11.1167 10.3898 10.9288 10.485 10.8175L10.105 10.4925C9.9762 10.6432 9.87503 10.7793 9.7831 10.8703L10.1349 11.2257ZM10.485 10.8175C10.6216 10.6576 10.6734 10.5312 10.7426 10.3928L10.2954 10.1692C10.2146 10.3308 10.1924 10.3903 10.105 10.4925L10.485 10.8175ZM10.7426 10.3928C10.8685 10.1411 10.7966 9.91962 10.7228 9.77461L10.2772 10.0014C10.2985 10.0432 10.3079 10.0732 10.3104 10.0968C10.3125 10.1162 10.3108 10.1383 10.2954 10.1692L10.7426 10.3928ZM10.724 9.77699C10.6728 9.6737 10.231 8.58743 10.0388 8.12588L9.57722 8.31812C9.75899 8.75457 10.2152 9.8763 10.276 9.99901L10.724 9.77699ZM10.0388 8.12596C9.93731 7.882 9.81296 7.72202 9.64653 7.64352C9.49983 7.57432 9.3248 7.58967 9.31486 7.58923L9.29314 8.08876C9.31845 8.08986 9.34412 8.08947 9.36003 8.08933C9.37858 8.08917 9.39067 8.08921 9.40162 8.08981C9.42112 8.0909 9.42851 8.09351 9.43322 8.09573C9.43904 8.09848 9.49769 8.127 9.57718 8.31804L10.0388 8.12596ZM9.31422 7.58921C9.16759 7.58321 9.02085 7.58047 8.8741 7.581L8.8759 8.081C9.01523 8.0805 9.15456 8.0831 9.29378 8.08879L9.31422 7.58921ZM8.86863 7.58108C8.72046 7.58485 8.57467 7.6192 8.44039 7.68197L8.65213 8.13492C8.72401 8.10132 8.80205 8.08294 8.88137 8.08092L8.86863 7.58108ZM8.44039 7.68197C8.30612 7.74473 8.18626 7.83456 8.08834 7.94583L8.46366 8.27617C8.51609 8.21661 8.58025 8.16852 8.65213 8.13492L8.44039 7.68197ZM8.09161 7.94218C7.88444 8.16846 7.241 8.77375 7.241 9.982H7.741C7.741 8.98225 8.25557 8.50354 8.46039 8.27982L8.09161 7.94218ZM7.241 9.982C7.241 10.5903 7.46098 11.174 7.68408 11.6134C7.90898 12.0564 8.14831 12.3744 8.20668 12.4526L8.60732 12.1534C8.55368 12.0816 8.33502 11.7911 8.12992 11.3871C7.92302 10.9795 7.741 10.4777 7.741 9.982H7.241ZM8.20668 12.4526C8.30571 12.5852 9.81589 14.9155 12.1399 15.9195L12.3381 15.4605C10.1621 14.5205 8.73229 12.3208 8.60732 12.1534L8.20668 12.4526ZM12.1401 15.9196C12.6869 16.1553 13.1137 16.2961 13.4418 16.4011L13.5942 15.9249C13.2723 15.8219 12.8631 15.6867 12.3379 15.4604L12.1401 15.9196ZM13.4421 16.4012C14.0293 16.5882 14.5605 16.5593 14.9674 16.4993L14.8946 16.0047C14.5275 16.0587 14.0807 16.0798 13.5939 15.9248L13.4421 16.4012ZM14.9677 16.4993C15.2302 16.4603 15.5957 16.3062 15.9144 16.102C16.2271 15.9016 16.558 15.6131 16.6805 15.27L16.2095 15.102C16.145 15.2829 15.9344 15.4954 15.6446 15.681C15.3608 15.8628 15.0628 15.9797 14.8943 16.0047L14.9677 16.4993ZM16.6805 15.27C16.7813 14.9876 16.8325 14.7233 16.8507 14.5128C16.8598 14.4078 16.8609 14.3124 16.8547 14.2322C16.8495 14.1657 16.8369 14.0684 16.7908 13.991L16.3612 14.2469C16.3431 14.2166 16.3515 14.2107 16.3562 14.2711C16.3599 14.318 16.3599 14.3852 16.3526 14.4697C16.338 14.6382 16.2957 14.8604 16.2095 15.102L16.6805 15.27ZM16.7908 13.991C16.7261 13.8824 16.6216 13.8179 16.5442 13.7753C16.4673 13.7329 16.3552 13.6813 16.2582 13.6326L16.0338 14.0794C16.1598 14.1427 16.2347 14.1756 16.303 14.2132C16.3709 14.2506 16.3699 14.2616 16.3612 14.2469L16.7908 13.991Z" fill="white" mask="url(#path-1-outside-1)"/>
</svg>
