<svg width="24" height="24" viewBox="0 0 24 24" fill="none" xmlns="http://www.w3.org/2000/svg">
<path d="M21.2095 0H2.79048C1.25595 0 0 0.728914 0 1.62103V22.3783C0 23.2704 1.25595 24 2.79048 24H21.2095C22.744 24 24 23.2718 24 22.379V1.62103C24 0.728914 22.744 0 21.2095 0ZM9.05371 1.16846H14.9463C15.1328 1.16846 15.2839 1.25623 15.2839 1.36526C15.2839 1.4736 15.1328 1.56137 14.9463 1.56137H9.05371C8.8672 1.56137 8.71611 1.4736 8.71611 1.36526C8.71611 1.25623 8.8672 1.16846 9.05371 1.16846ZM12 23.1895C11.2292 23.1895 10.6048 22.8267 10.6048 22.3783C10.6048 21.9298 11.2292 21.5678 12 21.5678C12.7708 21.5678 13.3952 21.9298 13.3952 22.3783C13.3952 22.8267 12.7708 23.1895 12 23.1895ZM22.0582 21H1.94177V2.57074H22.0582V21Z" fill="#67696F"/>
</svg>
