<svg width="320" height="320" viewBox="0 0 320 320" fill="none" xmlns="http://www.w3.org/2000/svg">
<path d="M268.032 13.76H35.1677V243.296H268.032V13.76Z" fill="#F3F3F3"/>
<path d="M268.032 13.76H35.1677V31.232H268.032V13.76Z" fill="#E1E1E1"/>
<path d="M47.4551 25.472C48.975 25.472 50.2071 24.2399 50.2071 22.72C50.2071 21.2001 48.975 19.968 47.4551 19.968C45.9352 19.968 44.7031 21.2001 44.7031 22.72C44.7031 24.2399 45.9352 25.472 47.4551 25.472Z" fill="#FD8369"/>
<path d="M56.3196 25.472C57.8395 25.472 59.0716 24.2399 59.0716 22.72C59.0716 21.2001 57.8395 19.968 56.3196 19.968C54.7997 19.968 53.5676 21.2001 53.5676 22.72C53.5676 24.2399 54.7997 25.472 56.3196 25.472Z" fill="#FD8369"/>
<path d="M65.1844 25.472C66.7043 25.472 67.9364 24.2399 67.9364 22.72C67.9364 21.2001 66.7043 19.968 65.1844 19.968C63.6645 19.968 62.4324 21.2001 62.4324 22.72C62.4324 24.2399 63.6645 25.472 65.1844 25.472Z" fill="#FD8369"/>
<path d="M139.648 43.968H46.5601V94.4H139.648V43.968Z" fill="white"/>
<path d="M139.648 106.368H46.5601V156.8H139.648V106.368Z" fill="white"/>
<path d="M255.391 106.368H162.303V215.136H255.391V106.368Z" fill="white"/>
<path d="M283.616 47.616H155.808V52.48H283.616V47.616Z" fill="#E1E1E1"/>
<path d="M283.616 61.344H155.808V66.208H283.616V61.344Z" fill="#E1E1E1"/>
<path d="M283.616 75.072H155.808V79.936H283.616V75.072Z" fill="#E1E1E1"/>
<path d="M283.616 88.8H155.808V93.664H283.616V88.8Z" fill="#E1E1E1"/>
<path d="M225.665 241.984H220.769V249.408H225.665V241.984Z" fill="#DE8E68"/>
<path d="M283.361 273.344H278.465V280.768H283.361V273.344Z" fill="#DE8E68"/>
<path d="M256.705 173.28C250.785 173.28 224.353 199.552 222.049 203.968C219.745 208.384 220.417 242.976 220.417 242.976L226.113 244.064L235.361 211.84C239.393 211.36 256.353 207.712 265.121 200.64C273.889 193.536 264.289 177.696 264.289 177.696L256.705 173.28Z" fill="#3F4D79"/>
<path d="M246.817 137.6C243.905 140.192 238.081 146.688 237.601 147.52C236.129 146.816 220.801 138.752 219.649 138.24C218.497 137.728 216.065 133.664 215.233 133.664C214.753 133.664 214.305 134.592 214.305 135.232C214.305 136.32 214.817 137.152 215.137 137.504C214.049 137.344 204.449 136.608 204.449 137.248C204.449 138.912 215.201 141.12 216.033 141.568C216.865 142.016 234.369 158.208 240.449 158.208C242.817 158.208 253.281 151.104 253.281 150.336C254.273 149.664 255.809 148.672 255.809 148.672V143.04L252.161 140.384C252.161 140.352 247.393 137.088 246.817 137.6Z" fill="#DE8E68"/>
<path d="M246.432 135.744C247.072 130.56 259.008 118.784 264.48 124.032C269.248 128.608 260.608 144.96 258.4 145.6C255.904 145.856 246.272 139.264 246.432 135.744Z" fill="#FEBF92"/>
<path d="M282.849 124.96C288.929 122.4 297.441 136.48 296.481 141.6C296.481 143.84 284.001 148.64 282.081 147.36C280.161 146.08 276.769 127.52 282.849 124.96Z" fill="#FED892"/>
<path d="M258.337 175.552L278.433 273.312H283.585L285.409 186.112C285.409 184.608 285.281 175.136 285.281 173.92C279.457 175.616 267.041 176.96 258.337 175.552Z" fill="#3F4D79"/>
<path d="M278.465 280.768H283.361V286.08H269.857L278.465 280.768Z" fill="#6562CF"/>
<path d="M220.768 249.408H225.664V254.72H212.16L220.768 249.408Z" fill="#6562CF"/>
<path d="M249.632 254.72H191.36V288.832H249.632V254.72Z" fill="#5270FC"/>
<path d="M45.0247 290.688L22.5287 290.432L14.6567 261.536H52.3847L45.0247 290.688Z" fill="#5270FC"/>
<path d="M269.537 117.44C284.577 117.44 289.825 129.952 289.825 134.016C289.825 138.08 285.121 162.88 285.313 173.92C285.345 175.744 258.337 177.376 254.657 174.72C252.929 173.472 249.217 117.44 269.537 117.44Z" fill="#FECC92"/>
<path d="M296.481 141.6C300.737 148.128 300.481 163.168 300.481 165.44C300.481 167.712 284.609 188.128 283.233 188.128C282.401 187.296 280.097 184.768 280.097 184C280.833 182.656 290.273 162.016 291.969 160.544C291.201 159.616 284.449 149.024 284.161 147.264C290.081 146.272 295.809 143.776 296.481 141.6Z" fill="#DE8E68"/>
<path d="M296.48 141.6C297.44 136.48 289.664 121.632 282.848 124.96C276.928 127.872 280.16 146.08 282.08 147.36C284.384 148.352 295.584 144.992 296.48 141.6Z" fill="#FED892"/>
<path d="M265.696 114.368C265.376 115.36 265.216 118.432 265.568 119.808C265.6 119.872 271.968 120.352 272.672 119.232C272.704 118.304 274.24 110.048 276.32 107.488C276.512 107.2 276.096 106.4 276.096 106.4L268.704 109.472L265.696 114.368Z" fill="#D38466"/>
<path d="M275.264 107.104C275.744 107.744 276.352 108.032 276.896 108.032C278.112 108.032 280.928 106.912 280.928 102.912C280.928 100.032 278.112 98.56 278.112 97.184C278.112 95.872 278.464 95.84 278.464 94.752C278.464 94.208 277.92 92.416 276.224 92.416C275.264 92.416 274.912 93.216 273.952 93.216C272.896 93.216 271.936 91.168 270.336 91.168C269.248 91.168 268.224 92.192 267.072 92.192C265.76 92.192 264.864 90.24 263.04 90.24C261.152 90.24 260.48 91.936 259.744 91.936C258.816 91.936 258.656 91.68 257.728 91.68C257.152 91.68 255.392 92.704 255.392 94.56C255.392 95.872 255.936 98.016 258.656 98.016C260.256 98.016 261.152 100.544 262.56 100.544C263.104 100.544 263.584 100.096 263.712 100.32C264.256 101.28 265.376 103.904 265.376 103.904L270.464 106.752L275.264 107.104Z" fill="#3F4D79"/>
<path d="M274.144 105.792C274.144 106.24 273.984 106.336 273.312 106.336C272.992 106.336 272.544 105.92 272.544 105.472C272.544 104.416 273.312 104.192 273.312 102.816C273.312 100.48 267.2 99.264 265.056 98.048C264.288 98.816 263.744 99.808 263.52 100.928L262.144 108C261.536 111.072 263.552 114.048 266.592 114.656C269.632 115.264 272.64 113.248 273.248 110.208L273.472 108.992C273.6 109.024 273.728 109.056 273.824 109.056C274.624 109.056 275.232 108.32 275.232 107.424C275.296 106.592 274.144 105.12 274.144 105.792Z" fill="#DE8E68"/>
<path d="M36.7366 250.208C30.2406 206.72 14.3366 183.904 12.3206 184.768C9.47262 186.016 8.64062 210.432 13.7286 235.648C13.8566 235.648 13.9526 235.616 14.0806 235.616C15.5526 235.616 16.7366 236.8 16.7366 238.272C16.7366 238.72 16.6406 239.136 16.4486 239.488C17.3126 239.936 17.9206 240.832 17.9206 241.856C17.9206 243.136 16.9926 244.224 15.7766 244.48C17.2806 250.304 19.1686 256.064 21.4086 261.408C22.5606 261.408 35.4886 261.408 35.4886 261.408C35.4886 261.408 37.6966 256.544 36.7366 250.208Z" fill="#8FD3F1"/>
<path d="M74.3371 204.096C70.4011 204.096 66.1771 215.424 61.5051 215.424C60.4811 215.424 59.8091 214.304 59.8091 213.248C59.8091 212.224 63.0411 200.96 63.0411 195.488C63.0411 195.008 63.0091 194.496 62.9451 193.984C62.4331 194.304 61.7931 194.496 61.1531 194.496C59.2331 194.496 57.6651 192.928 57.6651 191.008C57.6651 189.312 58.8491 187.936 60.4491 187.584C58.8171 185.504 56.4171 184.032 53.1531 184.032C49.0251 184.032 43.2011 187.712 43.2011 193.408C43.2011 195.008 43.6811 199.072 43.6811 202.752C43.6811 223.616 27.3291 226.752 27.3291 249.856C27.3291 254.72 30.0171 260.064 30.8171 261.376C30.8171 261.376 44.5131 261.536 45.8251 261.536C47.1371 261.536 57.7931 243.744 59.0091 241.856C63.6491 234.688 79.0731 226.816 79.0731 209.696C79.0731 207.296 78.2091 204.096 74.3371 204.096Z" fill="#ACE0F7"/>
</svg>
