<svg width="281" height="80" viewBox="0 0 281 80" fill="none" xmlns="http://www.w3.org/2000/svg">
<g clip-path="url(#clip0)">
<path fill-rule="evenodd" clip-rule="evenodd" d="M19.1348 44.2434V75.8807H40.2147L37.5686 73.272L34.2422 69.9875L33.1053 68.8695H25.7825V47.5031L23.176 44.7354V71.6074H32.172L33.989 73.2472H21.7462V43.2844L21.5377 43.0807L19.1348 40.7105V44.2434Z" fill="#204184"/>
<path fill-rule="evenodd" clip-rule="evenodd" d="M22.3509 28.2037L4.9746 45.595L3.12774 47.4385L1.86175 48.7056L0.397175 50.1565L0 50.559L12.3868 62.9615L14.9139 65.4956L14.889 61.7789L14.8592 57.0981V55.5081L12.3322 52.9739L9.6811 50.3255L24.7836 35.2099L24.8978 31.4037L22.4155 33.8882L7.84417 48.4571L5.99732 50.3056L5.89306 50.4099L7.73495 52.2584L12.2578 56.7801L12.3819 59.2248L3.69867 50.5391L24.868 29.3515V29.0633V25.6894L22.3857 28.1739L22.3509 28.2037Z" fill="#602D91"/>
<path fill-rule="evenodd" clip-rule="evenodd" d="M35.9494 19.1354H4.36914V40.2336L6.97559 37.5851L10.2572 34.2559L11.3743 33.118V25.7888H32.7223L35.4877 23.1801H8.60896V32.1888L6.97063 34.0075V21.7491H36.9076L37.1111 21.5404L39.4793 19.1354H35.9494Z" fill="#E81E25"/>
<path fill-rule="evenodd" clip-rule="evenodd" d="M51.9751 22.3553L34.5987 4.96397L32.7519 3.11552L31.4809 1.84347L30.0362 0.397509L29.639 0L17.277 12.3826L14.75 14.9168L18.4636 14.887L23.1353 14.8571H24.729L27.256 12.3279L29.9071 9.67453L45.0096 24.7901L48.8126 24.9043L46.3302 22.4199L31.7391 7.80621L29.8922 5.96273L29.783 5.85341L27.9411 7.69689L23.4233 12.2236L20.9807 12.3478L29.639 3.68199L50.8034 24.8646H51.0963L54.4673 24.8397L51.985 22.3553H51.9751Z" fill="#EAC11D"/>
<path fill-rule="evenodd" clip-rule="evenodd" d="M61.036 35.9702V4.35281H39.9561L42.5973 6.96151L45.9236 10.246L47.0605 11.364H54.3834V32.7305L56.9898 35.5031V8.60127H47.9938L46.1768 6.96151H58.4246V36.9243L58.6331 37.128L61.036 39.4982V35.9702Z" fill="#9CCB3B"/>
<path fill-rule="evenodd" clip-rule="evenodd" d="M57.8184 52.0298L75.1947 34.6385L77.0415 32.795L78.3075 31.5229L79.7522 30.0819L80.1494 29.6794L67.7824 17.2471L65.2505 14.713L65.2802 18.4298L65.31 23.1055V24.7006L67.837 27.2347L70.4882 29.8832L55.3857 44.9987L55.2715 48.8049L57.7538 46.3204L72.3201 31.7465L74.162 29.8981L74.2712 29.7937L72.4294 27.9453L67.9066 23.4235L67.7824 20.9788L76.4656 29.6695L55.3013 50.8521V51.1453L55.3261 54.5192L57.8084 52.0347L57.8184 52.0298Z" fill="#009048"/>
<path fill-rule="evenodd" clip-rule="evenodd" d="M44.2152 61.0733H75.8053V39.9751L73.1989 42.6236L69.9172 45.9528L68.8002 47.0907V54.4199H47.4521L44.6819 57.0285H71.5705V48.0199L73.2088 46.2012V58.4596H43.2719L43.0683 58.6683L40.7002 61.0733H44.2152Z" fill="#00ABAA"/>
<path fill-rule="evenodd" clip-rule="evenodd" d="M28.2002 57.8535L45.5765 75.2448L47.4184 77.0932L48.6844 78.3603L50.1291 79.8063L50.5312 80.2038L62.9032 67.8212L65.4302 65.287L61.7216 65.3168L57.0449 65.3466H55.4562L52.9242 67.8758L50.2731 70.5292L35.1755 55.4137L31.3726 55.2994L33.8549 57.7839L48.4312 72.4025L50.2731 74.251L50.3823 74.3553L52.2292 72.5118L56.747 67.9851L59.1896 67.8609L50.5412 76.5168L29.3718 55.3342H29.0839L25.7129 55.359L28.1952 57.8435L28.2002 57.8535Z" fill="#0084A9"/>
<path fill-rule="evenodd" clip-rule="evenodd" d="M102.838 13.2024V53.5204H96.2549V13.2024H102.838ZM138.961 40.1341C138.961 44.2252 137.599 47.6339 134.875 50.3602C132.115 52.9452 128.477 54.3834 124.697 54.3834C120.918 54.3834 117.279 52.9452 114.52 50.3602C111.793 47.6306 110.429 44.2219 110.429 40.1341C110.381 38.266 110.72 36.4082 111.424 34.6774C112.128 32.9467 113.182 31.3804 114.52 30.0769C115.866 28.7537 117.464 27.7147 119.219 27.0216C120.975 26.3285 122.851 25.9954 124.737 26.0422C128.821 26.0422 132.207 27.3871 134.895 30.0769C136.232 31.3806 137.285 32.9471 137.989 34.6779C138.692 36.4086 139.03 38.2663 138.981 40.1341H138.961ZM130.278 46.067C131.73 44.4377 132.509 42.3168 132.457 40.1341C132.521 37.9892 131.733 35.9064 130.268 34.3403C129.565 33.5794 128.708 32.9778 127.755 32.5758C126.801 32.1738 125.772 31.9809 124.737 32.0098C123.692 31.9767 122.653 32.1675 121.688 32.5695C120.723 32.9714 119.855 33.5752 119.142 34.3403C117.68 35.908 116.895 37.9902 116.958 40.1341C116.895 42.3115 117.66 44.4317 119.097 46.067C119.808 46.8452 120.678 47.4611 121.648 47.8727C122.617 48.2843 123.664 48.4819 124.717 48.4521C125.763 48.4928 126.805 48.2999 127.766 47.8873C128.728 47.4747 129.586 46.8529 130.278 46.067V46.067ZM173.326 26.6881V53.5204C173.326 57.6082 172.059 60.8645 169.523 63.2894C166.988 65.7142 163.715 66.9299 159.703 66.9366C155.88 66.9366 152.701 65.8947 150.166 63.8111C148.928 62.8543 147.905 61.6476 147.164 60.2694C146.422 58.8911 145.979 57.3721 145.862 55.8111H152.505C152.597 56.5652 152.847 57.2913 153.238 57.9427C153.629 58.594 154.152 59.1561 154.773 59.5925C156.231 60.568 157.961 61.0552 159.713 60.9838C161.874 60.9838 163.596 60.3212 164.876 58.9962C166.157 57.6711 166.801 55.8492 166.808 53.5303V50.1763C164.38 51.8653 161.477 52.7356 158.522 52.6608C154.984 52.6572 151.591 51.2611 149.073 48.7741C146.556 46.2871 145.117 42.9088 145.067 39.3689C145.067 35.3937 146.355 32.1175 148.93 29.5403C150.176 28.2656 151.67 27.2602 153.32 26.5859C154.97 25.9116 156.74 25.5828 158.522 25.6198C161.477 25.5484 164.378 26.4184 166.808 28.1043V26.6136L173.326 26.6881ZM159.475 47.026C162.656 47.026 165.097 45.7573 166.798 43.2198V35.1353C166.012 33.9156 164.925 32.9191 163.642 32.242C162.36 31.5649 160.925 31.2299 159.475 31.2695C158.419 31.235 157.368 31.4248 156.391 31.8265C155.413 32.2282 154.532 32.8326 153.805 33.5999C153.073 34.372 152.5 35.2814 152.12 36.2757C151.74 37.2699 151.561 38.3296 151.591 39.3937C151.597 40.3812 151.801 41.3575 152.191 42.2648C152.58 43.1721 153.148 43.9919 153.86 44.6757C154.588 45.4279 155.462 46.0228 156.429 46.4236C157.395 46.8244 158.434 47.0227 159.48 47.0061L159.475 47.026ZM197.301 26.062C199.092 26.044 200.868 26.4042 202.511 27.1191C204.154 27.834 205.629 28.8876 206.838 30.2111C208.126 31.5207 209.141 33.0739 209.823 34.7802C210.504 36.4864 210.84 38.3115 210.81 40.149C210.853 41.9881 210.523 43.8169 209.84 45.5249C209.158 47.233 208.136 48.7849 206.838 50.0869C205.624 51.4008 204.148 52.4441 202.505 53.1487C200.861 53.8533 199.088 54.2035 197.301 54.1763C194.381 54.2469 191.516 53.3759 189.129 51.6918V67.031H182.546V26.6881H189.129V28.5614C191.516 26.8773 194.381 26.0063 197.301 26.0769V26.062ZM196.338 48.5018C197.402 48.5257 198.46 48.3207 199.439 47.9007C200.418 47.4807 201.295 46.8554 202.012 46.067C203.476 44.448 204.287 42.3424 204.287 40.1589C204.287 37.9754 203.476 35.8698 202.012 34.2508C201.3 33.4534 200.424 32.8188 199.445 32.3901C198.466 31.9614 197.406 31.7487 196.338 31.7664C194.915 31.7126 193.502 32.0297 192.239 32.6864C190.975 33.3432 189.903 34.3172 189.129 35.513V44.7751C189.903 45.9709 190.975 46.9448 192.239 47.6016C193.502 48.2584 194.915 48.5754 196.338 48.5217V48.5018ZM245.234 26.6881V53.5204H238.701V51.6471C236.289 53.3269 233.407 54.1969 230.47 54.1316C228.675 54.155 226.894 53.8033 225.243 53.0992C223.591 52.3951 222.105 51.3539 220.878 50.0421C218.364 47.3447 216.966 43.7932 216.966 40.1043C216.966 36.4154 218.364 32.8638 220.878 30.1664C222.095 28.8389 223.579 27.7833 225.232 27.0684C226.885 26.3535 228.669 25.9953 230.47 26.0173C233.407 25.952 236.289 26.822 238.701 28.5018V26.6881H245.234ZM231.438 48.5018C232.877 48.5548 234.305 48.2294 235.579 47.5581C236.854 46.8868 237.93 45.893 238.701 44.6757V35.5328C237.927 34.3185 236.849 33.3281 235.574 32.6604C234.298 31.9926 232.871 31.6707 231.433 31.7266C230.364 31.709 229.304 31.9217 228.325 32.3504C227.346 32.7791 226.47 33.4137 225.758 34.2111C224.297 35.8316 223.489 37.9366 223.489 40.1192C223.489 42.3017 224.297 44.4067 225.758 46.0272C226.475 46.8165 227.352 47.4428 228.331 47.8636C229.31 48.2845 230.368 48.4903 231.433 48.467L231.438 48.5018ZM280.786 13.2223V53.5204H274.263V51.5875C271.867 53.3077 268.979 54.2055 266.031 54.1465C264.235 54.1779 262.453 53.83 260.8 53.1253C259.147 52.4207 257.662 51.3752 256.44 50.0571C253.922 47.3476 252.522 43.7846 252.522 40.0844C252.522 36.3842 253.922 32.8212 256.44 30.1117C257.667 28.8 259.153 27.7588 260.805 27.0547C262.456 26.3505 264.236 25.9989 266.031 26.0223C268.969 25.9591 271.85 26.8288 274.263 28.5067V13.2024L280.786 13.2223ZM266.995 48.5018C268.433 48.5577 269.86 48.2358 271.136 47.568C272.411 46.9003 273.489 45.9099 274.263 44.6956V35.4732C272.562 32.9722 270.139 31.7233 266.995 31.7266C265.926 31.709 264.866 31.9217 263.887 32.3504C262.908 32.7791 262.032 33.4137 261.32 34.2111C259.857 35.8188 259.046 37.9149 259.046 40.0894C259.046 42.2638 259.857 44.3599 261.32 45.9676C262.03 46.7711 262.905 47.4117 263.885 47.8456C264.866 48.2795 265.928 48.4966 267 48.4819L266.995 48.5018Z" fill="#333232"/>
</g>
<defs>
<clipPath id="clip0">
<rect width="281" height="80" fill="white"/>
</clipPath>
</defs>
</svg>
