<svg width="320" height="428" viewBox="0 0 320 428" fill="none" xmlns="http://www.w3.org/2000/svg">
<path d="M67.4454 298.519C98.3307 298.519 123.368 293.766 123.368 287.902C123.368 282.039 98.3307 277.285 67.4454 277.285C36.56 277.285 11.5225 282.039 11.5225 287.902C11.5225 293.766 36.56 298.519 67.4454 298.519Z" fill="white" stroke="#8FD3F1" stroke-width="5" stroke-miterlimit="10"/>
<path d="M64.1373 298.523V373.126C64.1358 377.2 62.9908 381.193 60.8319 384.651C58.673 388.11 55.5864 390.898 51.9213 392.698L32.0257 402.479C29.9842 403.483 28.2653 405.037 27.0633 406.964C25.8613 408.892 25.2243 411.116 25.2244 413.386" stroke="#8FD3F1" stroke-width="5" stroke-miterlimit="10"/>
<path d="M25.406 427.174C29.2243 427.174 32.3196 424.087 32.3196 420.28C32.3196 416.472 29.2243 413.386 25.406 413.386C21.5878 413.386 18.4924 416.472 18.4924 420.28C18.4924 424.087 21.5878 427.174 25.406 427.174Z" stroke="#FFBED2" stroke-width="5" stroke-miterlimit="10"/>
<path d="M51.5774 427.174C55.3957 427.174 58.491 424.087 58.491 420.28C58.491 416.472 55.3957 413.386 51.5774 413.386C47.7591 413.386 44.6638 416.472 44.6638 420.28C44.6638 424.087 47.7591 427.174 51.5774 427.174Z" stroke="#FFBED2" stroke-width="5" stroke-miterlimit="10"/>
<path d="M64.137 364.366V387.74C64.137 391.48 62.7465 395.087 60.2345 397.864L55.4835 403.131C52.9699 405.907 51.5783 409.514 51.5776 413.254" stroke="#8FD3F1" stroke-width="5" stroke-miterlimit="10"/>
<path d="M71.1958 298.523V373.126C71.1969 377.2 72.3417 381.193 74.5007 384.652C76.6596 388.111 79.7464 390.898 83.4118 392.698L103.304 402.479C105.346 403.482 107.066 405.036 108.269 406.963C109.472 408.891 110.109 411.116 110.109 413.386" stroke="#8FD3F1" stroke-width="5" stroke-miterlimit="10"/>
<path d="M109.931 427.174C113.749 427.174 116.845 424.087 116.845 420.28C116.845 416.472 113.749 413.386 109.931 413.386C106.113 413.386 103.018 416.472 103.018 420.28C103.018 424.087 106.113 427.174 109.931 427.174Z" stroke="#FFBED2" stroke-width="5" stroke-miterlimit="10"/>
<path d="M83.7554 427.174C87.5737 427.174 90.669 424.087 90.669 420.28C90.669 416.472 87.5737 413.386 83.7554 413.386C79.9371 413.386 76.8418 416.472 76.8418 420.28C76.8418 424.087 79.9371 427.174 83.7554 427.174Z" stroke="#FFBED2" stroke-width="5" stroke-miterlimit="10"/>
<path d="M71.1958 364.366V387.74C71.1959 391.48 72.5863 395.087 75.0983 397.864L79.8527 403.131C82.3652 405.908 83.7558 409.515 83.7552 413.254" stroke="#8FD3F1" stroke-width="5" stroke-miterlimit="10"/>
<path d="M118.878 379.862C118.878 379.862 119.268 392.84 111.423 398.275C104.027 403.398 103.753 407.519 103.753 407.519C103.753 407.519 116.078 419.453 119.113 420.688C122.147 421.923 133.197 425.725 138.922 425.725C138.922 425.725 142.795 422.91 133.927 415.19C121.896 404.691 135.548 385.831 135.548 385.831C135.548 385.831 123.008 382.087 118.878 379.862Z" fill="#FFC0B7"/>
<path d="M96.8201 226.5C96.8201 226.5 159.429 233.862 184.409 259.837C197.906 273.874 144.789 358.493 142.297 386.914C142.297 386.914 123.025 384.385 110.535 374.776C110.535 374.776 112.846 296.116 141.24 281.538C141.24 281.538 87.2025 285.818 64.0779 274.065C40.9533 262.312 64.0779 230.184 64.0779 230.184C64.0779 230.184 84.1914 234.095 96.8201 226.5Z" fill="#3C4564"/>
<path d="M113.404 395.312C113.404 395.312 103.014 399.391 102.763 406.861C102.763 406.861 113.609 417.939 119.113 420.688C127.74 425.017 139.583 426.384 139.583 426.384C139.583 426.384 143.875 421.116 137.13 416.01C130.385 410.904 129.084 401.854 129.084 401.854C129.084 401.854 128.341 408.26 122.339 409.426C116.963 410.479 115.227 407.78 115.227 407.78C115.227 407.78 116.845 396.221 113.404 395.312Z" fill="#FA6501"/>
<path d="M27.0235 231.277C27.0235 231.277 15.6593 263.349 19.7599 272.304C27.3933 289.028 88.0639 294.012 133.032 285.825C133.032 285.825 117.326 340.972 135.885 386.166C135.885 386.166 148.378 388.316 165.863 385.837C165.863 385.837 165.507 331.388 173.358 273.384C174.92 261.726 107.659 234.359 78.0468 231.267C48.4345 228.176 27.0235 231.277 27.0235 231.277Z" fill="#3F4D79"/>
<path d="M140.335 386.713C140.335 386.713 143.726 399.328 143.726 403.085C143.726 410.736 137.836 419.987 138.905 426.393H192.243C192.243 426.393 189.014 418.541 176.022 415.697C161.389 412.494 158.705 403.128 159.072 386.726C159.072 386.713 149.431 387.45 140.335 386.713Z" fill="#FFCFC9"/>
<path d="M142.801 409.126C142.801 409.126 136.588 417.85 138.906 426.393H193.075C193.075 426.393 192.953 418.756 185.402 417.834C177.851 416.912 165.593 410.719 165.593 410.719C165.593 410.719 166.501 419.796 152.581 420.863C152.581 420.876 153.119 409.472 142.801 409.126Z" fill="#FA6501"/>
<path d="M104.763 98.7053C97.1367 102.478 92.521 103.703 94.9345 127.772C97.348 151.841 114.896 179.962 114.896 179.962L137.717 157.53C137.717 157.53 122.338 112.921 119.116 107.983C112.839 98.3992 107.732 97.237 104.763 98.7053Z" fill="#FD9704"/>
<path d="M143.95 164.766C143.95 164.766 139.275 154.231 136.971 154.122C134.666 154.014 118.35 166.099 116.058 176.792C115.322 180.242 111.898 186.01 131.612 188.522C137.724 189.299 143.95 164.766 143.95 164.766Z" fill="#FA6501"/>
<path d="M216.917 183.311C216.917 183.311 215.457 184.259 211.149 183.238C209.762 182.909 207.804 180.479 205.741 179.159C204.07 178.089 200.788 178.274 197.259 178.692C195.258 178.922 193.369 176.285 192.105 174.804C179.559 178.425 144.604 188.565 130.715 187.416C127.188 187.126 137.281 164.973 143.393 163.528C148.015 162.438 175.217 163.409 192.462 165.605C198.6 166.488 204.658 167.853 210.581 169.688C212.846 171.11 216.917 183.311 216.917 183.311Z" fill="#FFC0B7"/>
<path d="M96.8189 226.5C96.8189 226.5 90.7671 231.501 78.0492 231.257V231.238C76.6163 207.027 73.6316 161.546 70.5182 144.654C64.2814 110.847 47.278 81.6948 47.0139 81.2438L79.6076 82.9623C79.6076 82.9623 96.4987 94.87 100.187 144.684C103.875 194.497 96.8189 226.5 96.8189 226.5Z" fill="white"/>
<path d="M79.6045 82.9623C82.6948 84.1804 102.891 94.3795 109.319 98.1753C115.747 101.971 119.633 131.67 116.252 155.591C110.544 195.919 111.019 211.692 116.675 229.957C116.675 229.957 103.782 227.267 96.8257 226.711C96.8257 226.711 93.2831 199.057 98.1464 171.011C107.998 114.123 79.6045 82.9623 79.6045 82.9623Z" fill="#FD9704"/>
<path d="M47.0077 81.2504C47.0077 81.2504 14.7838 91.8774 4.17898 103.637C-0.113128 108.381 24.4047 166.981 22.262 184.061C20.1192 201.141 10.1285 238.852 10.1285 238.852C10.1285 238.852 25.4216 258.78 78.9277 246.912C78.9277 246.912 74.8436 168.147 70.5119 144.661C64.2289 110.593 47.0077 81.2504 47.0077 81.2504Z" fill="#FD9704"/>
<path d="M115.147 135.66C113.671 146.073 112.271 170.557 113.12 178.55" stroke="#FA6501" stroke-width="6" stroke-miterlimit="10" stroke-linecap="round"/>
<path d="M11.2682 97.7309C4.17956 103.624 -2.00438 103.15 0.613808 129.247C3.232 155.344 22.2626 185.836 22.2626 185.836L47.0082 161.51C47.0082 161.51 34.2409 114.238 31.7811 108.368C28.1626 99.7127 18.3567 91.8511 11.2682 97.7309Z" fill="#FD9704"/>
<path d="M47.3515 161.51C47.3515 161.51 39.4837 123.545 34.178 115.555" stroke="#FA6501" stroke-width="6" stroke-miterlimit="10" stroke-linecap="round"/>
<path d="M56.6059 166.504C56.6059 166.504 48.6821 157.918 46.1761 157.816C43.6702 157.714 26.6965 169.836 23.0648 182.244C21.9917 185.918 16.0653 192.143 39.4969 198.138C52.5284 201.48 56.6059 166.504 56.6059 166.504Z" fill="#FA6501"/>
<path d="M157.513 182.385C157.513 182.385 156.298 184.078 154.525 182.915C153.419 182.191 151.415 180.282 149.903 179.337C151.256 181.467 152.5 183.665 153.63 185.921C151.674 186.784 149.569 187.265 147.43 187.337C145.66 187.412 142.943 184.374 140.219 183.004C138.017 181.901 133.996 182.557 129.684 183.531C125.372 184.505 120.726 178.142 120.726 178.142V178.106C112.545 180.854 59.9964 195.554 40.4376 194.527C36.0497 194.296 47.7441 168.262 55.2751 166.241C61.634 164.532 103.261 164.97 123.361 167.814C131.117 168.687 142.92 171.85 145.132 172.351C147.149 172.624 151.795 175.923 153.086 176.99C154.433 178.106 157.513 182.385 157.513 182.385Z" fill="#FFCFC9"/>
<path d="M151.39 185.984C151.39 185.984 145.922 178.158 144.417 177.622C141.775 176.673 138.312 175.419 138.312 175.419" stroke="#F7B3AF" stroke-width="4" stroke-miterlimit="10" stroke-linecap="round"/>
<path d="M148.771 186.721C148.771 186.721 143.818 180.196 142.333 179.659C139.691 178.711 136.225 177.457 136.225 177.457" stroke="#F7B3AF" stroke-width="4" stroke-miterlimit="10" stroke-linecap="round"/>
<path d="M80.1596 78.7121L72.6947 99.6436C72.6947 99.6436 52.3963 101.872 47.0906 81.1746L54.2419 60.7632L80.1596 78.7121Z" fill="#FFCFC9"/>
<path d="M80.1629 78.7121L76.7887 88.1672C72.2984 90.205 66.5536 90.1425 60.9409 82.7055C55.8531 75.95 54.7569 66.0373 53.7961 62.36L54.2287 60.7764L80.1629 78.7121Z" fill="#FFC0B7"/>
<path d="M54.2416 60.7765C54.2416 60.7765 60.4685 75.0348 68.0787 77.336C75.3423 79.5286 84.227 78.9459 85.1481 77.336C86.0693 75.7261 93.6069 56.7205 91.6061 44.1642C90.2227 35.4762 86.5315 34.2878 79.6113 34.9627C72.6911 35.6376 70.2578 36.398 61.799 33.8137C59.4252 33.0894 63.5027 46.37 56.3547 51.43C56.3547 51.43 50.9928 49.6325 49.8373 51.4728C48.6817 53.3131 54.2416 60.7765 54.2416 60.7765Z" fill="#FFCFC9"/>
<path d="M53.2716 63.4068C53.2716 63.4068 34.9971 52.2728 35.882 37.2013C36.2682 30.7487 49.9733 13.399 58.3693 12.6813C66.7653 11.9636 79.7209 16.2698 83.7918 19.8582C87.8627 23.4467 93.4359 27.3051 91.9832 41.0465C91.901 41.7974 91.7212 42.5345 91.4483 43.2391C89.9494 35.3906 86.2812 34.2976 79.6153 34.9626C72.6819 35.654 70.2585 36.3947 61.7865 33.8137C59.4126 33.0861 63.4934 46.3699 56.3421 51.43C56.3421 51.43 50.9803 49.6325 49.828 51.4695C48.6757 53.3065 54.2291 60.7731 54.2291 60.7731L53.2716 63.4068Z" fill="#3F4D79"/>
<path d="M51.8649 15.5192C51.8649 15.5192 53.5719 2.1629 44.6938 2.63368C35.8157 3.10446 30.4176 11.4863 29.5823 16.9611C28.5125 23.9965 41.3195 26.0705 41.3195 26.0705L51.8649 15.5192Z" fill="#3F4D79"/>
<path d="M32.6128 25.9619C35.6206 29.5042 41.3192 26.0705 41.3192 26.0705" stroke="#3F4D79" stroke-width="4" stroke-miterlimit="10"/>
<path d="M54.3148 15.003C54.3148 15.003 56.2727 0.168527 46.0871 0.659058C35.9016 1.14959 29.272 13.2976 30.6488 17.0606C32.0255 20.8235 42.2044 26.0712 42.2044 26.0712L54.3148 15.003Z" stroke="#3F4D79" stroke-width="4" stroke-miterlimit="10"/>
<path d="M86.5025 34.8968C84.6965 34.1791 82.3556 35.8844 79.612 36.5429C70.6976 38.6828 64.5764 37.5305 61.2715 33.2869" stroke="#3F4D79" stroke-width="4" stroke-miterlimit="10"/>
<path d="M71.6618 60.4177C75.5002 60.4177 78.6117 57.315 78.6117 53.4877C78.6117 49.6603 75.5002 46.5577 71.6618 46.5577C67.8235 46.5577 64.7119 49.6603 64.7119 53.4877C64.7119 57.315 67.8235 60.4177 71.6618 60.4177Z" stroke="#FF94B4" stroke-width="5" stroke-miterlimit="10"/>
<path d="M89.5929 60.4177C93.1869 60.4177 96.1005 57.315 96.1005 53.4877C96.1005 49.6603 93.1869 46.5577 89.5929 46.5577C85.999 46.5577 83.0854 49.6603 83.0854 53.4877C83.0854 57.315 85.999 60.4177 89.5929 60.4177Z" stroke="#FF94B4" stroke-width="5" stroke-miterlimit="10"/>
<path d="M78.563 53.0103H82.8122" stroke="#FF94B4" stroke-width="5" stroke-miterlimit="10"/>
<path d="M228.014 427.177L257.728 201.203H263.084L292.798 427.177" stroke="#FFBED2" stroke-width="5" stroke-miterlimit="10" stroke-linecap="round"/>
<path d="M280.463 191.054H265.605L263.294 187.801C261.032 184.604 256.846 182.636 252.313 182.636H230.499C225.966 182.636 221.78 184.611 219.518 187.801L217.207 191.054H202.927L208.636 183.896C211.188 180.696 215.899 178.728 221.01 178.728H262.376C267.484 178.728 272.205 180.703 274.754 183.896L280.463 191.054Z" fill="#D1D0FF" stroke="#8FD3F1" stroke-width="6" stroke-linejoin="round"/>
<path d="M280.736 191.054H274.711L272.4 187.801C270.135 184.604 265.949 182.636 261.419 182.636H230.783C226.253 182.636 222.067 184.611 219.802 187.801L217.491 191.054H203.201L208.91 183.896C211.462 180.696 216.173 178.728 221.287 178.728H262.654C267.761 178.728 272.479 180.703 275.028 183.896L280.736 191.054Z" fill="white" stroke="#8FD3F1" stroke-width="6" stroke-miterlimit="10"/>
<path d="M289.077 158.567H149.207C145.493 158.567 142.815 154.886 143.845 151.196L164.708 76.5821C165.224 74.6281 166.368 72.897 167.966 71.655C169.564 70.4131 171.527 69.729 173.553 69.7081H313.423C317.138 69.7081 319.819 73.3887 318.785 77.0759L297.922 151.693C297.405 153.645 296.259 155.375 294.662 156.616C293.064 157.858 291.103 158.543 289.077 158.567Z" fill="white" stroke="#8FD3F1" stroke-width="6" stroke-miterlimit="10"/>
<path d="M207.649 135.861L204.12 157.444H216.336L210.931 135.824C210.812 135.341 207.728 135.37 207.649 135.861Z" fill="#E2E2FF"/>
<path d="M257.305 178.501H222.638L214.077 144.196C213.133 140.427 211.911 138.959 208.986 138.129V136.154H238.41C240.784 136.154 243.09 136.945 244.961 138.403C246.831 139.86 248.16 141.9 248.734 144.196L257.305 178.501Z" fill="#D1D0FF" stroke="#8FD3F1" stroke-width="6" stroke-linejoin="round"/>
<path d="M260.746 178.501H226.079L217.517 144.196C216.335 139.472 214.724 136.154 209.838 136.154H241.864C244.235 136.158 246.537 136.951 248.405 138.408C250.273 139.865 251.6 141.902 252.175 144.196L260.746 178.501Z" fill="white" stroke="#8FD3F1" stroke-width="6" stroke-miterlimit="10"/>
<path d="M171.077 185.161L124.996 187.798V191.054H171.077V185.161Z" fill="white" stroke="#8FD3F1" stroke-width="6" stroke-linejoin="round"/>
<path d="M199.893 185.161H171.077V190.929H199.893V185.161Z" fill="#D1D0FF" stroke="#8FD3F1" stroke-width="6" stroke-linejoin="round"/>
<path d="M75.3396 200.716H286.898V191.054H74.8608L75.3396 200.716Z" fill="white" stroke="#8FD3F1" stroke-width="6" stroke-linejoin="round"/>
</svg>
